<svg xmlns="http://www.w3.org/2000/svg" xmlns:xlink="http://www.w3.org/1999/xlink" width="525" zoomAndPan="magnify" viewBox="0 0 525 374.999991" height="374.999991" preserveAspectRatio="xMidYMid meet" version="1.0"><defs><g/><clipPath id="id1"><path d="M 1.320312 98.449219 L 151.320312 98.449219 L 151.320312 248.449219 L 1.320312 248.449219 Z M 1.320312 98.449219 " clip-rule="nonzero"/></clipPath></defs><g clip-path="url(#id1)"><path fill="rgb(82.749939%, 82.749939%, 82.749939%)" d="M 76.101562 98.476562 C 55.558594 98.476562 37.484375 106.078125 23.515625 120.25 C 9.136719 134.832031 1.332031 153.734375 1.332031 173.449219 C 1.332031 193.375 8.929688 211.863281 23.308594 226.242188 C 37.691406 240.621094 56.382812 248.425781 76.101562 248.425781 C 95.820312 248.425781 114.925781 240.621094 129.714844 226.039062 C 143.683594 212.273438 151.074219 193.992188 151.074219 173.449219 C 151.074219 153.117188 143.683594 134.628906 129.507812 120.457031 C 115.128906 106.074219 96.640625 98.476562 76.101562 98.476562 Z M 76.304688 112.035156 C 93.152344 112.035156 108.144531 118.398438 119.851562 130.113281 C 131.355469 141.613281 137.515625 156.8125 137.515625 173.449219 C 137.515625 190.292969 131.558594 205.085938 120.058594 216.382812 C 107.9375 228.296875 92.328125 234.664062 76.304688 234.664062 C 60.078125 234.664062 44.878906 228.296875 33.167969 216.585938 C 21.460938 204.878906 14.886719 189.472656 14.886719 173.449219 C 14.886719 157.226562 21.460938 141.820312 33.167969 129.902344 C 44.671875 118.195312 59.460938 112.035156 76.304688 112.035156 Z M 76.304688 112.035156 " fill-opacity="1" fill-rule="nonzero"/></g><path fill="rgb(82.749939%, 82.749939%, 82.749939%)" d="M 75.339844 160.992188 C 71.105469 153.269531 63.878906 150.195312 55.492188 150.195312 C 43.285156 150.195312 33.566406 158.832031 33.566406 173.449219 C 33.566406 188.3125 42.703125 196.703125 55.90625 196.703125 C 64.378906 196.703125 71.605469 192.050781 75.589844 184.992188 L 66.289062 180.257812 C 64.210938 185.238281 61.054688 186.738281 57.070312 186.738281 C 50.175781 186.738281 47.019531 181.007812 47.019531 173.449219 C 47.019531 165.894531 49.679688 160.160156 57.070312 160.160156 C 59.0625 160.160156 63.046875 161.238281 65.375 166.226562 Z M 75.339844 160.992188 " fill-opacity="1" fill-rule="nonzero"/><path fill="rgb(82.749939%, 82.749939%, 82.749939%)" d="M 118.589844 160.992188 C 114.355469 153.269531 107.128906 150.195312 98.742188 150.195312 C 86.535156 150.195312 76.820312 158.832031 76.820312 173.449219 C 76.820312 188.3125 85.953125 196.703125 99.15625 196.703125 C 107.628906 196.703125 114.855469 192.050781 118.839844 184.992188 L 109.539062 180.257812 C 107.460938 185.238281 104.304688 186.738281 100.320312 186.738281 C 93.425781 186.738281 90.269531 181.007812 90.269531 173.449219 C 90.269531 165.894531 92.929688 160.160156 100.320312 160.160156 C 102.3125 160.160156 106.300781 161.238281 108.625 166.226562 Z M 118.589844 160.992188 " fill-opacity="1" fill-rule="nonzero"/><g fill="rgb(82.749939%, 82.749939%, 82.749939%)" fill-opacity="1"><g transform="translate(179.318534, 157.998198)"><g><path d="M 21.417969 -26.472656 L 3.398438 -26.472656 C 2.683594 -26.472656 2.265625 -26.054688 2.265625 -25.359375 L 2.265625 -1.097656 C 2.265625 -0.4375 2.683594 0 3.398438 0 L 9.167969 0 C 9.863281 0 10.28125 -0.4375 10.28125 -1.097656 L 10.28125 -7.824219 L 18.839844 -7.824219 C 19.640625 -7.824219 20.128906 -8.277344 20.128906 -8.992188 L 20.128906 -12.722656 C 20.128906 -13.488281 19.640625 -13.925781 18.839844 -13.925781 L 10.28125 -13.925781 L 10.28125 -18.890625 L 21.417969 -18.890625 C 22.132812 -18.890625 22.550781 -19.308594 22.550781 -20.023438 L 22.550781 -25.339844 C 22.550781 -26.054688 22.132812 -26.472656 21.417969 -26.472656 Z M 21.417969 -26.472656 "/></g></g></g><g fill="rgb(82.749939%, 82.749939%, 82.749939%)" fill-opacity="1"><g transform="translate(205.822138, 157.998198)"><g><path d="M 18.804688 -17.847656 L 15.492188 -17.847656 C 15.164062 -17.847656 14.882812 -17.65625 14.691406 -17.394531 L 13.90625 -16.050781 C 12.6875 -17.53125 11.015625 -18.335938 9.027344 -18.335938 C 4.339844 -18.335938 0.871094 -14.394531 0.871094 -8.851562 C 0.871094 -3.433594 4.339844 0.488281 9.027344 0.488281 C 11.03125 0.488281 12.703125 -0.296875 13.90625 -1.761719 L 14.691406 -0.453125 C 14.882812 -0.191406 15.164062 0 15.492188 0 L 18.804688 0 C 19.257812 0 19.554688 -0.3125 19.554688 -0.765625 L 19.554688 -17.078125 C 19.554688 -17.53125 19.257812 -17.847656 18.804688 -17.847656 Z M 10.421875 -6.535156 C 9.253906 -6.535156 8.085938 -7.511719 8.085938 -8.886719 C 8.085938 -10.28125 9.253906 -11.277344 10.421875 -11.277344 C 11.605469 -11.277344 12.792969 -10.28125 12.792969 -8.886719 C 12.792969 -7.511719 11.605469 -6.535156 10.421875 -6.535156 Z M 10.421875 -6.535156 "/></g></g></g><g fill="rgb(82.749939%, 82.749939%, 82.749939%)" fill-opacity="1"><g transform="translate(230.147784, 157.998198)"><g><path d="M 9.046875 -12.390625 C 10.109375 -12.390625 11.085938 -12.078125 11.902344 -11.589844 C 12.546875 -11.207031 13.191406 -11.222656 13.558594 -11.605469 L 15.859375 -14.011719 C 16.417969 -14.585938 16.523438 -14.96875 15.683594 -15.824219 C 14.289062 -17.234375 11.433594 -18.335938 8.871094 -18.335938 C 3.957031 -18.335938 1.570312 -15.773438 1.570312 -12.828125 C 1.570312 -9.148438 4.007812 -8.226562 7.632812 -7.214844 C 9.0625 -6.8125 9.53125 -6.5 9.53125 -6.03125 C 9.53125 -5.59375 9.132812 -5.488281 8.574219 -5.488281 C 7.753906 -5.488281 6.535156 -5.839844 5.316406 -6.570312 C 4.757812 -6.902344 4.078125 -7.179688 3.640625 -6.726562 L 0.871094 -3.835938 C 0.402344 -3.347656 0.382812 -2.824219 0.835938 -2.300781 C 2.25 -0.664062 5.507812 0.488281 8.558594 0.488281 C 13.507812 0.488281 16.609375 -1.601562 16.609375 -5.089844 C 16.609375 -8.625 13.941406 -9.53125 9.757812 -10.683594 C 8.539062 -11.015625 8.191406 -11.378906 8.191406 -11.730469 C 8.191406 -12.164062 8.523438 -12.390625 9.046875 -12.390625 Z M 9.046875 -12.390625 "/></g></g></g><g fill="rgb(82.749939%, 82.749939%, 82.749939%)" fill-opacity="1"><g transform="translate(250.709926, 157.998198)"><g><path d="M 12.898438 -18.335938 C 11.363281 -18.335938 9.933594 -17.65625 8.886719 -16.609375 L 8.886719 -25.777344 C 8.886719 -26.230469 8.625 -26.472656 8.171875 -26.472656 L 2.441406 -26.472656 C 1.988281 -26.472656 1.742188 -26.230469 1.742188 -25.777344 L 1.742188 -0.714844 C 1.742188 -0.261719 1.988281 0 2.441406 0 L 8.171875 0 C 8.625 0 8.886719 -0.261719 8.886719 -0.714844 L 8.886719 -9.671875 C 8.886719 -10.824219 9.289062 -11.867188 10.613281 -11.867188 C 12.128906 -11.867188 12.320312 -10.945312 12.320312 -9.65625 L 12.320312 -0.75 C 12.320312 -0.261719 12.566406 0 13.054688 0 L 18.71875 0 C 19.207031 0 19.46875 -0.261719 19.46875 -0.75 L 19.46875 -10.089844 C 19.46875 -15.300781 17.148438 -18.335938 12.898438 -18.335938 Z M 12.898438 -18.335938 "/></g></g></g><g fill="rgb(82.749939%, 82.749939%, 82.749939%)" fill-opacity="1"><g transform="translate(274.774223, 157.998198)"><g><path d="M 5.296875 -19.046875 C 7.460938 -19.046875 9.167969 -20.757812 9.167969 -22.917969 C 9.167969 -25.027344 7.460938 -26.785156 5.296875 -26.785156 C 3.15625 -26.785156 1.429688 -25.042969 1.429688 -22.917969 C 1.429688 -20.757812 3.15625 -19.046875 5.296875 -19.046875 Z M 8.171875 -17.847656 L 2.441406 -17.847656 C 1.988281 -17.847656 1.742188 -17.566406 1.742188 -17.132812 L 1.742188 -0.714844 C 1.742188 -0.261719 1.988281 0 2.441406 0 L 8.171875 0 C 8.625 0 8.886719 -0.261719 8.886719 -0.714844 L 8.886719 -17.132812 C 8.886719 -17.566406 8.625 -17.847656 8.171875 -17.847656 Z M 8.171875 -17.847656 "/></g></g></g><g fill="rgb(82.749939%, 82.749939%, 82.749939%)" fill-opacity="1"><g transform="translate(288.436614, 157.998198)"><g><path d="M 0.871094 -8.921875 C 0.871094 -3.660156 5.140625 0.488281 10.5625 0.488281 C 15.964844 0.488281 20.199219 -3.660156 20.199219 -8.921875 C 20.199219 -14.1875 15.964844 -18.335938 10.5625 -18.335938 C 5.140625 -18.335938 0.871094 -14.1875 0.871094 -8.921875 Z M 8.105469 -8.921875 C 8.105469 -10.472656 9.078125 -11.539062 10.527344 -11.539062 C 11.972656 -11.539062 12.964844 -10.472656 12.964844 -8.921875 C 12.964844 -7.371094 11.972656 -6.308594 10.527344 -6.308594 C 9.078125 -6.308594 8.105469 -7.371094 8.105469 -8.921875 Z M 8.105469 -8.921875 "/></g></g></g><g fill="rgb(82.749939%, 82.749939%, 82.749939%)" fill-opacity="1"><g transform="translate(312.535764, 157.998198)"><g><path d="M 13.558594 -18.335938 C 11.398438 -18.335938 9.027344 -17.007812 7.914062 -15.195312 L 6.605469 -17.394531 C 6.414062 -17.65625 6.132812 -17.847656 5.804688 -17.847656 L 2.492188 -17.847656 C 2.039062 -17.847656 1.742188 -17.53125 1.742188 -17.078125 L 1.742188 -0.75 C 1.742188 -0.261719 2.003906 0 2.476562 0 L 8.15625 0 C 8.625 0 8.90625 -0.261719 8.90625 -0.75 L 8.90625 -9.671875 C 8.90625 -10.824219 9.953125 -11.867188 11.277344 -11.867188 C 12.792969 -11.867188 13.609375 -10.945312 13.609375 -9.65625 L 13.609375 -0.75 C 13.609375 -0.261719 13.855469 0 14.34375 0 L 20.007812 0 C 20.496094 0 20.757812 -0.261719 20.757812 -0.75 L 20.757812 -10.089844 C 20.757812 -15.300781 17.8125 -18.335938 13.558594 -18.335938 Z M 13.558594 -18.335938 "/></g></g></g><g fill="rgb(82.749939%, 82.749939%, 82.749939%)" fill-opacity="1"><g transform="translate(353.433558, 157.998198)"><g><path d="M 12.703125 0.488281 C 18.367188 0.488281 22.761719 -2.875 22.761719 -8.242188 C 22.761719 -13.523438 19.03125 -14.953125 14.640625 -16.191406 C 11.992188 -16.941406 10.316406 -17.496094 10.316406 -18.367188 C 10.316406 -18.996094 10.980469 -19.34375 12.164062 -19.34375 C 13 -19.34375 14.152344 -18.875 15.265625 -18.210938 C 16.101562 -17.722656 16.730469 -17.550781 17.480469 -18.421875 L 20.566406 -21.976562 C 21.085938 -22.585938 21.054688 -23.335938 20.546875 -23.875 C 18.855469 -25.671875 15.648438 -26.960938 12.566406 -26.960938 C 6.394531 -26.960938 2.476562 -23.648438 2.476562 -18.457031 C 2.476562 -13.976562 4.742188 -11.886719 10.527344 -10.195312 C 13.855469 -9.21875 14.464844 -8.871094 14.464844 -8.105469 C 14.464844 -7.492188 13.835938 -7.144531 12.355469 -7.144531 C 10.632812 -7.144531 8.886719 -8.085938 7.371094 -9.253906 C 6.761719 -9.726562 6.117188 -9.757812 5.699219 -9.324219 L 1.863281 -5.472656 C 1.34375 -4.933594 1.253906 -4.320312 1.601562 -3.886719 C 3.765625 -1.183594 8.121094 0.488281 12.703125 0.488281 Z M 12.703125 0.488281 "/></g></g></g><g fill="rgb(82.749939%, 82.749939%, 82.749939%)" fill-opacity="1"><g transform="translate(380.442437, 157.998198)"><g><path d="M 19.851562 -17.847656 L 14.167969 -17.847656 C 13.699219 -17.847656 13.417969 -17.585938 13.417969 -17.097656 L 13.417969 -8.171875 C 13.417969 -7.023438 12.375 -5.976562 11.050781 -5.976562 C 9.53125 -5.976562 8.714844 -6.902344 8.714844 -8.191406 L 8.714844 -17.097656 C 8.714844 -17.585938 8.46875 -17.847656 7.980469 -17.847656 L 2.316406 -17.847656 C 1.828125 -17.847656 1.570312 -17.585938 1.570312 -17.097656 L 1.570312 -7.753906 C 1.570312 -2.542969 4.515625 0.488281 8.765625 0.488281 C 10.925781 0.488281 13.296875 -0.835938 14.414062 -2.648438 L 15.71875 -0.453125 C 15.910156 -0.191406 16.191406 0 16.523438 0 L 19.832031 0 C 20.285156 0 20.582031 -0.3125 20.582031 -0.765625 L 20.582031 -17.097656 C 20.582031 -17.585938 20.320312 -17.847656 19.851562 -17.847656 Z M 19.851562 -17.847656 "/></g></g></g><g fill="rgb(82.749939%, 82.749939%, 82.749939%)" fill-opacity="1"><g transform="translate(405.796089, 157.998198)"><g><path d="M 25.375 -18.335938 C 23.125 -18.335938 20.652344 -16.886719 19.605469 -14.96875 C 18.367188 -17.132812 16.207031 -18.335938 13.542969 -18.335938 C 11.378906 -18.335938 9.027344 -17.007812 7.914062 -15.195312 L 6.605469 -17.394531 C 6.414062 -17.65625 6.132812 -17.847656 5.804688 -17.847656 L 2.492188 -17.847656 C 2.039062 -17.847656 1.742188 -17.53125 1.742188 -17.078125 L 1.742188 -0.75 C 1.742188 -0.261719 2.003906 0 2.476562 0 L 8.15625 0 C 8.625 0 8.90625 -0.261719 8.90625 -0.75 L 8.90625 -9.671875 C 8.90625 -10.824219 9.933594 -11.867188 11.257812 -11.867188 C 12.773438 -11.867188 13.59375 -10.945312 13.59375 -9.65625 L 13.59375 -0.75 C 13.59375 -0.261719 13.835938 0 14.324219 0 L 19.988281 0 C 20.476562 0 20.738281 -0.261719 20.738281 -0.75 L 20.738281 -9.671875 C 20.738281 -10.824219 21.765625 -11.867188 23.09375 -11.867188 C 24.609375 -11.867188 25.425781 -10.945312 25.425781 -9.65625 L 25.425781 -0.75 C 25.425781 -0.261719 25.671875 0 26.160156 0 L 31.824219 0 C 32.3125 0 32.574219 -0.261719 32.574219 -0.75 L 32.574219 -10.089844 C 32.574219 -15.300781 29.628906 -18.335938 25.375 -18.335938 Z M 25.375 -18.335938 "/></g></g></g><g fill="rgb(82.749939%, 82.749939%, 82.749939%)" fill-opacity="1"><g transform="translate(442.962949, 157.998198)"><g><path d="M 25.375 -18.335938 C 23.125 -18.335938 20.652344 -16.886719 19.605469 -14.96875 C 18.367188 -17.132812 16.207031 -18.335938 13.542969 -18.335938 C 11.378906 -18.335938 9.027344 -17.007812 7.914062 -15.195312 L 6.605469 -17.394531 C 6.414062 -17.65625 6.132812 -17.847656 5.804688 -17.847656 L 2.492188 -17.847656 C 2.039062 -17.847656 1.742188 -17.53125 1.742188 -17.078125 L 1.742188 -0.75 C 1.742188 -0.261719 2.003906 0 2.476562 0 L 8.15625 0 C 8.625 0 8.90625 -0.261719 8.90625 -0.75 L 8.90625 -9.671875 C 8.90625 -10.824219 9.933594 -11.867188 11.257812 -11.867188 C 12.773438 -11.867188 13.59375 -10.945312 13.59375 -9.65625 L 13.59375 -0.75 C 13.59375 -0.261719 13.835938 0 14.324219 0 L 19.988281 0 C 20.476562 0 20.738281 -0.261719 20.738281 -0.75 L 20.738281 -9.671875 C 20.738281 -10.824219 21.765625 -11.867188 23.09375 -11.867188 C 24.609375 -11.867188 25.425781 -10.945312 25.425781 -9.65625 L 25.425781 -0.75 C 25.425781 -0.261719 25.671875 0 26.160156 0 L 31.824219 0 C 32.3125 0 32.574219 -0.261719 32.574219 -0.75 L 32.574219 -10.089844 C 32.574219 -15.300781 29.628906 -18.335938 25.375 -18.335938 Z M 25.375 -18.335938 "/></g></g></g><g fill="rgb(82.749939%, 82.749939%, 82.749939%)" fill-opacity="1"><g transform="translate(480.129809, 157.998198)"><g><path d="M 5.296875 -19.046875 C 7.460938 -19.046875 9.167969 -20.757812 9.167969 -22.917969 C 9.167969 -25.027344 7.460938 -26.785156 5.296875 -26.785156 C 3.15625 -26.785156 1.429688 -25.042969 1.429688 -22.917969 C 1.429688 -20.757812 3.15625 -19.046875 5.296875 -19.046875 Z M 8.171875 -17.847656 L 2.441406 -17.847656 C 1.988281 -17.847656 1.742188 -17.566406 1.742188 -17.132812 L 1.742188 -0.714844 C 1.742188 -0.261719 1.988281 0 2.441406 0 L 8.171875 0 C 8.625 0 8.886719 -0.261719 8.886719 -0.714844 L 8.886719 -17.132812 C 8.886719 -17.566406 8.625 -17.847656 8.171875 -17.847656 Z M 8.171875 -17.847656 "/></g></g></g><g fill="rgb(82.749939%, 82.749939%, 82.749939%)" fill-opacity="1"><g transform="translate(493.7922, 157.998198)"><g><path d="M 9.898438 -11.957031 L 12.425781 -11.957031 C 12.863281 -11.957031 13.105469 -12.21875 13.105469 -12.671875 L 13.105469 -17.132812 C 13.105469 -17.566406 12.863281 -17.847656 12.425781 -17.847656 L 9.882812 -17.847656 L 9.882812 -23.511719 C 9.882812 -24.066406 9.566406 -24.242188 9.027344 -24.121094 L 3.363281 -22.898438 C 2.945312 -22.8125 2.753906 -22.480469 2.753906 -22.046875 L 2.734375 -17.847656 L 1.308594 -17.847656 C 0.871094 -17.847656 0.609375 -17.566406 0.609375 -17.132812 L 0.609375 -12.671875 C 0.609375 -12.21875 0.871094 -11.957031 1.308594 -11.957031 L 2.753906 -11.957031 L 2.753906 -8.105469 C 2.753906 -2.054688 5.925781 0.488281 11.730469 0.488281 C 12.476562 0.488281 12.984375 0.0703125 12.984375 -0.539062 L 12.984375 -5.261719 C 12.984375 -5.839844 12.496094 -6.238281 11.796875 -6.238281 C 10.421875 -6.238281 9.898438 -6.378906 9.898438 -8 Z M 9.898438 -11.957031 "/></g></g></g><g fill="rgb(82.749939%, 82.749939%, 82.749939%)" fill-opacity="1"><g transform="translate(179.318534, 207.498195)"><g><path d="M 19.625 -6.621094 L 11.992188 -6.621094 L 16.851562 -10.613281 C 18.875 -12.269531 20.375 -14.777344 20.375 -17.636719 C 20.375 -23.160156 16.660156 -26.960938 10.875 -26.960938 C 7.476562 -26.960938 3.398438 -25.0625 1.621094 -20.199219 C 1.410156 -19.625 1.601562 -19.136719 2.125 -18.925781 L 6.761719 -17.0625 C 7.425781 -16.800781 8.121094 -16.871094 8.347656 -17.671875 C 8.835938 -19.414062 9.917969 -19.902344 10.960938 -19.902344 C 12.234375 -19.902344 13.246094 -18.960938 13.246094 -17.65625 C 13.246094 -16.921875 12.671875 -16.085938 11.765625 -15.25 L 1.742188 -5.90625 C 1.535156 -5.714844 1.445312 -5.316406 1.445312 -4.671875 L 1.445312 -1.117188 C 1.445312 -0.4375 1.988281 0 2.875 0 L 19.746094 0 C 20.476562 0 20.929688 -0.453125 20.929688 -1.203125 L 20.929688 -5.316406 C 20.929688 -6.132812 20.460938 -6.621094 19.625 -6.621094 Z M 19.625 -6.621094 "/></g></g></g><g fill="rgb(82.749939%, 82.749939%, 82.749939%)" fill-opacity="1"><g transform="translate(204.968375, 207.498195)"><g><path d="M 14.832031 0.488281 C 22.5 0.488281 28.53125 -5.542969 28.53125 -13.226562 C 28.53125 -20.929688 22.5 -26.960938 14.832031 -26.960938 C 7.164062 -26.960938 1.132812 -20.929688 1.132812 -13.226562 C 1.132812 -5.542969 7.164062 0.488281 14.832031 0.488281 Z M 14.832031 -6.65625 C 11.171875 -6.65625 8.296875 -9.550781 8.296875 -13.226562 C 8.296875 -16.941406 11.171875 -19.816406 14.832031 -19.816406 C 18.492188 -19.816406 21.367188 -16.941406 21.367188 -13.226562 C 21.367188 -9.550781 18.492188 -6.65625 14.832031 -6.65625 Z M 14.832031 -9.464844 C 16.921875 -9.464844 18.5625 -11.117188 18.5625 -13.226562 C 18.5625 -15.371094 16.921875 -17.027344 14.832031 -17.027344 C 12.738281 -17.027344 11.101562 -15.371094 11.101562 -13.226562 C 11.101562 -11.117188 12.738281 -9.464844 14.832031 -9.464844 Z M 14.832031 -9.464844 "/></g></g></g><g fill="rgb(82.749939%, 82.749939%, 82.749939%)" fill-opacity="1"><g transform="translate(237.657363, 207.498195)"><g><path d="M 19.625 -6.621094 L 11.992188 -6.621094 L 16.851562 -10.613281 C 18.875 -12.269531 20.375 -14.777344 20.375 -17.636719 C 20.375 -23.160156 16.660156 -26.960938 10.875 -26.960938 C 7.476562 -26.960938 3.398438 -25.0625 1.621094 -20.199219 C 1.410156 -19.625 1.601562 -19.136719 2.125 -18.925781 L 6.761719 -17.0625 C 7.425781 -16.800781 8.121094 -16.871094 8.347656 -17.671875 C 8.835938 -19.414062 9.917969 -19.902344 10.960938 -19.902344 C 12.234375 -19.902344 13.246094 -18.960938 13.246094 -17.65625 C 13.246094 -16.921875 12.671875 -16.085938 11.765625 -15.25 L 1.742188 -5.90625 C 1.535156 -5.714844 1.445312 -5.316406 1.445312 -4.671875 L 1.445312 -1.117188 C 1.445312 -0.4375 1.988281 0 2.875 0 L 19.746094 0 C 20.476562 0 20.929688 -0.453125 20.929688 -1.203125 L 20.929688 -5.316406 C 20.929688 -6.132812 20.460938 -6.621094 19.625 -6.621094 Z M 19.625 -6.621094 "/></g></g></g><g fill="rgb(82.749939%, 82.749939%, 82.749939%)" fill-opacity="1"><g transform="translate(263.307205, 207.498195)"><g><path d="M 19.625 -6.621094 L 11.992188 -6.621094 L 16.851562 -10.613281 C 18.875 -12.269531 20.375 -14.777344 20.375 -17.636719 C 20.375 -23.160156 16.660156 -26.960938 10.875 -26.960938 C 7.476562 -26.960938 3.398438 -25.0625 1.621094 -20.199219 C 1.410156 -19.625 1.601562 -19.136719 2.125 -18.925781 L 6.761719 -17.0625 C 7.425781 -16.800781 8.121094 -16.871094 8.347656 -17.671875 C 8.835938 -19.414062 9.917969 -19.902344 10.960938 -19.902344 C 12.234375 -19.902344 13.246094 -18.960938 13.246094 -17.65625 C 13.246094 -16.921875 12.671875 -16.085938 11.765625 -15.25 L 1.742188 -5.90625 C 1.535156 -5.714844 1.445312 -5.316406 1.445312 -4.671875 L 1.445312 -1.117188 C 1.445312 -0.4375 1.988281 0 2.875 0 L 19.746094 0 C 20.476562 0 20.929688 -0.453125 20.929688 -1.203125 L 20.929688 -5.316406 C 20.929688 -6.132812 20.460938 -6.621094 19.625 -6.621094 Z M 19.625 -6.621094 "/></g></g></g></svg>