<svg xmlns="http://www.w3.org/2000/svg" xmlns:xlink="http://www.w3.org/1999/xlink" width="525" zoomAndPan="magnify" viewBox="0 0 525 374.999991" height="374.999991" preserveAspectRatio="xMidYMid meet" version="1.0"><defs><g/><clipPath id="id1"><path d="M 9.6875 102.121094 L 127 102.121094 L 127 238 L 9.6875 238 Z M 9.6875 102.121094 " clip-rule="nonzero"/></clipPath><clipPath id="id2"><path d="M 58 138 L 171.6875 138 L 171.6875 273.121094 L 58 273.121094 Z M 58 138 " clip-rule="nonzero"/></clipPath></defs><rect x="-52.5" width="630" fill="rgb(100%, 100%, 100%)" y="-37.499999" height="449.999989" fill-opacity="1"/><rect x="-52.5" width="630" fill="rgb(100%, 100%, 100%)" y="-37.499999" height="449.999989" fill-opacity="1"/><rect x="-52.5" width="630" fill="rgb(100%, 100%, 100%)" y="-37.499999" height="449.999989" fill-opacity="1"/><g clip-path="url(#id1)"><path fill="rgb(92.549133%, 32.159424%, 25.878906%)" d="M 117.875 206.679688 L 114.386719 203.1875 C 105.164062 213.503906 91.765625 220 76.882812 220 C 52.421875 220 31.984375 202.449219 27.453125 179.257812 L 33.734375 179.257812 C 38.160156 199.027344 55.824219 213.847656 76.882812 213.847656 C 90.070312 213.847656 101.929688 208.035156 110.039062 198.835938 L 101.023438 189.953125 C 101.046875 189.925781 101.070312 189.902344 101.09375 189.875 L 97.589844 186.363281 C 92.699219 192.402344 85.234375 196.265625 76.882812 196.265625 C 63.796875 196.265625 52.886719 186.777344 50.640625 174.316406 L 45.636719 174.316406 C 47.929688 189.515625 61.070312 201.207031 76.882812 201.207031 C 84.777344 201.207031 92.011719 198.289062 97.558594 193.472656 L 102.84375 199.066406 C 95.914062 205.1875 86.824219 208.90625 76.882812 208.90625 C 57.910156 208.90625 42.035156 195.367188 38.386719 177.433594 L 38.386719 174.316406 L 21.785156 174.316406 C 24.195312 202.636719 47.988281 224.941406 76.882812 224.941406 C 91.257812 224.941406 104.367188 219.414062 114.207031 210.378906 L 119.09375 215.554688 C 107.976562 225.800781 93.148438 232.066406 76.882812 232.066406 C 44.0625 232.066406 17.078125 206.570312 14.644531 174.316406 L 9.699219 174.316406 C 12.140625 209.296875 41.339844 237.007812 76.882812 237.007812 C 96.449219 237.007812 114.09375 228.609375 126.40625 215.226562 C 126.40625 215.226562 117.816406 206.746094 117.875 206.679688 Z M 26.75 164.691406 L 9.707031 164.691406 C 12.207031 129.765625 41.382812 102.113281 76.882812 102.113281 C 96.445312 102.113281 114.085938 110.511719 126.40625 123.898438 L 122.914062 127.394531 C 111.496094 114.898438 95.085938 107.058594 76.882812 107.058594 C 45.761719 107.058594 19.882812 129.992188 15.21875 159.867188 L 22.429688 159.867188 C 27.019531 133.9375 49.691406 114.183594 76.882812 114.183594 C 93.125 114.183594 107.753906 121.234375 117.878906 132.433594 L 117.457031 133.160156 L 107.332031 143.871094 L 106.539062 143.789062 C 99.335938 135.484375 88.707031 130.222656 76.882812 130.222656 C 58.558594 130.222656 43.128906 142.847656 38.804688 159.867188 L 46.804688 159.867188 C 50.902344 147.148438 62.832031 137.917969 76.882812 137.917969 C 86.589844 137.917969 95.292969 142.328125 101.089844 149.25 L 97.589844 152.757812 C 92.695312 146.722656 85.230469 142.859375 76.882812 142.859375 C 63.84375 142.859375 52.953125 152.285156 50.664062 164.691406 L 32.933594 164.691406 C 35.363281 142.554688 54.144531 125.28125 76.882812 125.28125 C 88.476562 125.28125 99.039062 129.773438 106.929688 137.105469 L 111.148438 132.640625 C 102.15625 124.261719 90.109375 119.128906 76.882812 119.128906 C 50.757812 119.128906 29.207031 139.15625 26.75 164.691406 " fill-opacity="1" fill-rule="nonzero"/></g><g clip-path="url(#id2)"><path fill="rgb(15.289307%, 16.468811%, 19.219971%)" d="M 163.128906 242.785156 L 159.640625 239.289062 C 150.414062 249.601562 137.015625 256.101562 122.132812 256.101562 C 107.660156 256.101562 94.59375 249.953125 85.398438 240.128906 C 83.367188 240.371094 81.316406 240.527344 79.253906 240.59375 C 89.398438 253.066406 104.855469 261.042969 122.132812 261.042969 C 136.511719 261.042969 149.617188 255.519531 159.457031 246.480469 L 164.347656 251.65625 C 153.230469 261.902344 138.402344 268.167969 122.132812 268.167969 C 100.511719 268.167969 81.421875 257.097656 70.214844 240.320312 C 68.074219 240.121094 65.949219 239.824219 63.847656 239.433594 C 75.515625 259.550781 97.277344 273.109375 122.132812 273.109375 C 141.703125 273.109375 159.34375 264.714844 171.65625 251.324219 C 171.65625 251.324219 163.070312 242.847656 163.128906 242.785156 Z M 122.132812 249.949219 C 110.917969 249.949219 100.664062 245.746094 92.859375 238.824219 C 94.820312 238.371094 96.761719 237.832031 98.679688 237.210938 C 105.230469 242.105469 113.351562 245.007812 122.132812 245.007812 C 132.078125 245.007812 141.167969 241.289062 148.097656 235.167969 L 142.808594 229.574219 C 137.265625 234.390625 130.03125 237.308594 122.132812 237.308594 C 116.84375 237.308594 111.855469 236 107.46875 233.691406 C 109.34375 232.789062 111.179688 231.804688 112.972656 230.742188 C 115.828125 231.792969 118.917969 232.363281 122.132812 232.363281 C 130.488281 232.363281 137.949219 228.503906 142.839844 222.464844 L 146.347656 225.972656 C 146.324219 226 146.300781 226.027344 146.277344 226.054688 L 155.292969 234.933594 C 147.183594 244.136719 135.324219 249.949219 122.132812 249.949219 Z M 122.132812 138.214844 C 120.582031 138.214844 119.042969 138.269531 117.511719 138.371094 L 112.25 143.941406 C 115.472656 143.425781 118.773438 143.15625 122.132812 143.15625 C 140.339844 143.15625 156.746094 151 168.167969 163.496094 L 171.65625 160 C 159.339844 146.613281 141.699219 138.214844 122.132812 138.214844 Z M 86.371094 148.53125 C 73.527344 156.625 63.589844 168.9375 58.515625 183.515625 C 59.644531 185.011719 60.953125 186.355469 62.402344 187.527344 C 67.058594 172.164062 77.480469 159.289062 91.128906 151.429688 C 89.660156 150.269531 88.0625 149.296875 86.371094 148.53125 Z M 122.132812 174.019531 C 113.382812 174.019531 105.453125 177.601562 99.726562 183.378906 L 103.210938 186.871094 C 108.046875 181.988281 114.746094 178.960938 122.132812 178.960938 C 130.484375 178.960938 137.949219 182.824219 142.839844 188.855469 L 146.339844 185.351562 C 140.542969 178.429688 131.84375 174.019531 122.132812 174.019531 Z M 163.132812 168.535156 L 162.710938 169.261719 L 152.585938 179.96875 L 151.792969 179.890625 C 144.585938 171.582031 133.960938 166.324219 122.132812 166.324219 C 105.691406 166.324219 91.582031 176.488281 85.730469 190.875 C 83.886719 191.644531 81.941406 192.171875 79.929688 192.4375 C 85.558594 174.460938 102.347656 161.378906 122.132812 161.378906 C 133.726562 161.378906 144.289062 165.875 152.183594 173.210938 L 156.402344 168.742188 C 147.410156 160.363281 135.359375 155.230469 122.132812 155.230469 C 98.949219 155.230469 79.371094 171.003906 73.539062 192.398438 C 71.882812 192.15625 70.285156 191.742188 68.757812 191.167969 C 72.789062 176.289062 82.871094 163.886719 96.183594 156.773438 C 97.730469 155.945312 99.324219 155.1875 100.957031 154.507812 C 107.484375 151.789062 114.636719 150.289062 122.132812 150.289062 C 138.375 150.289062 153.003906 157.335938 163.132812 168.535156 " fill-opacity="1" fill-rule="nonzero"/></g><g fill="rgb(15.289307%, 16.468811%, 19.219971%)" fill-opacity="1"><g transform="translate(179.318534, 172.506229)"><g><path d="M 21.417969 -26.472656 L 3.398438 -26.472656 C 2.683594 -26.472656 2.265625 -26.054688 2.265625 -25.359375 L 2.265625 -1.097656 C 2.265625 -0.4375 2.683594 0 3.398438 0 L 9.167969 0 C 9.863281 0 10.28125 -0.4375 10.28125 -1.097656 L 10.28125 -7.824219 L 18.839844 -7.824219 C 19.640625 -7.824219 20.128906 -8.277344 20.128906 -8.992188 L 20.128906 -12.722656 C 20.128906 -13.488281 19.640625 -13.925781 18.839844 -13.925781 L 10.28125 -13.925781 L 10.28125 -18.890625 L 21.417969 -18.890625 C 22.132812 -18.890625 22.550781 -19.308594 22.550781 -20.023438 L 22.550781 -25.339844 C 22.550781 -26.054688 22.132812 -26.472656 21.417969 -26.472656 Z M 21.417969 -26.472656 "/></g></g></g><g fill="rgb(15.289307%, 16.468811%, 19.219971%)" fill-opacity="1"><g transform="translate(205.822138, 172.506229)"><g><path d="M 18.804688 -17.847656 L 15.492188 -17.847656 C 15.164062 -17.847656 14.882812 -17.65625 14.691406 -17.394531 L 13.90625 -16.050781 C 12.6875 -17.53125 11.015625 -18.335938 9.027344 -18.335938 C 4.339844 -18.335938 0.871094 -14.394531 0.871094 -8.851562 C 0.871094 -3.433594 4.339844 0.488281 9.027344 0.488281 C 11.03125 0.488281 12.703125 -0.296875 13.90625 -1.761719 L 14.691406 -0.453125 C 14.882812 -0.191406 15.164062 0 15.492188 0 L 18.804688 0 C 19.257812 0 19.554688 -0.3125 19.554688 -0.765625 L 19.554688 -17.078125 C 19.554688 -17.53125 19.257812 -17.847656 18.804688 -17.847656 Z M 10.421875 -6.535156 C 9.253906 -6.535156 8.085938 -7.511719 8.085938 -8.886719 C 8.085938 -10.28125 9.253906 -11.277344 10.421875 -11.277344 C 11.605469 -11.277344 12.792969 -10.28125 12.792969 -8.886719 C 12.792969 -7.511719 11.605469 -6.535156 10.421875 -6.535156 Z M 10.421875 -6.535156 "/></g></g></g><g fill="rgb(15.289307%, 16.468811%, 19.219971%)" fill-opacity="1"><g transform="translate(230.147784, 172.506229)"><g><path d="M 9.046875 -12.390625 C 10.109375 -12.390625 11.085938 -12.078125 11.902344 -11.589844 C 12.546875 -11.207031 13.191406 -11.222656 13.558594 -11.605469 L 15.859375 -14.011719 C 16.417969 -14.585938 16.523438 -14.96875 15.683594 -15.824219 C 14.289062 -17.234375 11.433594 -18.335938 8.871094 -18.335938 C 3.957031 -18.335938 1.570312 -15.773438 1.570312 -12.828125 C 1.570312 -9.148438 4.007812 -8.226562 7.632812 -7.214844 C 9.0625 -6.8125 9.53125 -6.5 9.53125 -6.03125 C 9.53125 -5.59375 9.132812 -5.488281 8.574219 -5.488281 C 7.753906 -5.488281 6.535156 -5.839844 5.316406 -6.570312 C 4.757812 -6.902344 4.078125 -7.179688 3.640625 -6.726562 L 0.871094 -3.835938 C 0.402344 -3.347656 0.382812 -2.824219 0.835938 -2.300781 C 2.25 -0.664062 5.507812 0.488281 8.558594 0.488281 C 13.507812 0.488281 16.609375 -1.601562 16.609375 -5.089844 C 16.609375 -8.625 13.941406 -9.53125 9.757812 -10.683594 C 8.539062 -11.015625 8.191406 -11.378906 8.191406 -11.730469 C 8.191406 -12.164062 8.523438 -12.390625 9.046875 -12.390625 Z M 9.046875 -12.390625 "/></g></g></g><g fill="rgb(15.289307%, 16.468811%, 19.219971%)" fill-opacity="1"><g transform="translate(250.709926, 172.506229)"><g><path d="M 12.898438 -18.335938 C 11.363281 -18.335938 9.933594 -17.65625 8.886719 -16.609375 L 8.886719 -25.777344 C 8.886719 -26.230469 8.625 -26.472656 8.171875 -26.472656 L 2.441406 -26.472656 C 1.988281 -26.472656 1.742188 -26.230469 1.742188 -25.777344 L 1.742188 -0.714844 C 1.742188 -0.261719 1.988281 0 2.441406 0 L 8.171875 0 C 8.625 0 8.886719 -0.261719 8.886719 -0.714844 L 8.886719 -9.671875 C 8.886719 -10.824219 9.289062 -11.867188 10.613281 -11.867188 C 12.128906 -11.867188 12.320312 -10.945312 12.320312 -9.65625 L 12.320312 -0.75 C 12.320312 -0.261719 12.566406 0 13.054688 0 L 18.71875 0 C 19.207031 0 19.46875 -0.261719 19.46875 -0.75 L 19.46875 -10.089844 C 19.46875 -15.300781 17.148438 -18.335938 12.898438 -18.335938 Z M 12.898438 -18.335938 "/></g></g></g><g fill="rgb(15.289307%, 16.468811%, 19.219971%)" fill-opacity="1"><g transform="translate(274.774223, 172.506229)"><g><path d="M 5.296875 -19.046875 C 7.460938 -19.046875 9.167969 -20.757812 9.167969 -22.917969 C 9.167969 -25.027344 7.460938 -26.785156 5.296875 -26.785156 C 3.15625 -26.785156 1.429688 -25.042969 1.429688 -22.917969 C 1.429688 -20.757812 3.15625 -19.046875 5.296875 -19.046875 Z M 8.171875 -17.847656 L 2.441406 -17.847656 C 1.988281 -17.847656 1.742188 -17.566406 1.742188 -17.132812 L 1.742188 -0.714844 C 1.742188 -0.261719 1.988281 0 2.441406 0 L 8.171875 0 C 8.625 0 8.886719 -0.261719 8.886719 -0.714844 L 8.886719 -17.132812 C 8.886719 -17.566406 8.625 -17.847656 8.171875 -17.847656 Z M 8.171875 -17.847656 "/></g></g></g><g fill="rgb(15.289307%, 16.468811%, 19.219971%)" fill-opacity="1"><g transform="translate(288.436614, 172.506229)"><g><path d="M 0.871094 -8.921875 C 0.871094 -3.660156 5.140625 0.488281 10.5625 0.488281 C 15.964844 0.488281 20.199219 -3.660156 20.199219 -8.921875 C 20.199219 -14.1875 15.964844 -18.335938 10.5625 -18.335938 C 5.140625 -18.335938 0.871094 -14.1875 0.871094 -8.921875 Z M 8.105469 -8.921875 C 8.105469 -10.472656 9.078125 -11.539062 10.527344 -11.539062 C 11.972656 -11.539062 12.964844 -10.472656 12.964844 -8.921875 C 12.964844 -7.371094 11.972656 -6.308594 10.527344 -6.308594 C 9.078125 -6.308594 8.105469 -7.371094 8.105469 -8.921875 Z M 8.105469 -8.921875 "/></g></g></g><g fill="rgb(15.289307%, 16.468811%, 19.219971%)" fill-opacity="1"><g transform="translate(312.535764, 172.506229)"><g><path d="M 13.558594 -18.335938 C 11.398438 -18.335938 9.027344 -17.007812 7.914062 -15.195312 L 6.605469 -17.394531 C 6.414062 -17.65625 6.132812 -17.847656 5.804688 -17.847656 L 2.492188 -17.847656 C 2.039062 -17.847656 1.742188 -17.53125 1.742188 -17.078125 L 1.742188 -0.75 C 1.742188 -0.261719 2.003906 0 2.476562 0 L 8.15625 0 C 8.625 0 8.90625 -0.261719 8.90625 -0.75 L 8.90625 -9.671875 C 8.90625 -10.824219 9.953125 -11.867188 11.277344 -11.867188 C 12.792969 -11.867188 13.609375 -10.945312 13.609375 -9.65625 L 13.609375 -0.75 C 13.609375 -0.261719 13.855469 0 14.34375 0 L 20.007812 0 C 20.496094 0 20.757812 -0.261719 20.757812 -0.75 L 20.757812 -10.089844 C 20.757812 -15.300781 17.8125 -18.335938 13.558594 -18.335938 Z M 13.558594 -18.335938 "/></g></g></g><g fill="rgb(15.289307%, 16.468811%, 19.219971%)" fill-opacity="1"><g transform="translate(337.889415, 172.506229)"><g/></g></g><g fill="rgb(15.289307%, 16.468811%, 19.219971%)" fill-opacity="1"><g transform="translate(353.433558, 172.506229)"><g><path d="M 12.703125 0.488281 C 18.367188 0.488281 22.761719 -2.875 22.761719 -8.242188 C 22.761719 -13.523438 19.03125 -14.953125 14.640625 -16.191406 C 11.992188 -16.941406 10.316406 -17.496094 10.316406 -18.367188 C 10.316406 -18.996094 10.980469 -19.34375 12.164062 -19.34375 C 13 -19.34375 14.152344 -18.875 15.265625 -18.210938 C 16.101562 -17.722656 16.730469 -17.550781 17.480469 -18.421875 L 20.566406 -21.976562 C 21.085938 -22.585938 21.054688 -23.335938 20.546875 -23.875 C 18.855469 -25.671875 15.648438 -26.960938 12.566406 -26.960938 C 6.394531 -26.960938 2.476562 -23.648438 2.476562 -18.457031 C 2.476562 -13.976562 4.742188 -11.886719 10.527344 -10.195312 C 13.855469 -9.21875 14.464844 -8.871094 14.464844 -8.105469 C 14.464844 -7.492188 13.835938 -7.144531 12.355469 -7.144531 C 10.632812 -7.144531 8.886719 -8.085938 7.371094 -9.253906 C 6.761719 -9.726562 6.117188 -9.757812 5.699219 -9.324219 L 1.863281 -5.472656 C 1.34375 -4.933594 1.253906 -4.320312 1.601562 -3.886719 C 3.765625 -1.183594 8.121094 0.488281 12.703125 0.488281 Z M 12.703125 0.488281 "/></g></g></g><g fill="rgb(15.289307%, 16.468811%, 19.219971%)" fill-opacity="1"><g transform="translate(380.442437, 172.506229)"><g><path d="M 19.851562 -17.847656 L 14.167969 -17.847656 C 13.699219 -17.847656 13.417969 -17.585938 13.417969 -17.097656 L 13.417969 -8.171875 C 13.417969 -7.023438 12.375 -5.976562 11.050781 -5.976562 C 9.53125 -5.976562 8.714844 -6.902344 8.714844 -8.191406 L 8.714844 -17.097656 C 8.714844 -17.585938 8.46875 -17.847656 7.980469 -17.847656 L 2.316406 -17.847656 C 1.828125 -17.847656 1.570312 -17.585938 1.570312 -17.097656 L 1.570312 -7.753906 C 1.570312 -2.542969 4.515625 0.488281 8.765625 0.488281 C 10.925781 0.488281 13.296875 -0.835938 14.414062 -2.648438 L 15.71875 -0.453125 C 15.910156 -0.191406 16.191406 0 16.523438 0 L 19.832031 0 C 20.285156 0 20.582031 -0.3125 20.582031 -0.765625 L 20.582031 -17.097656 C 20.582031 -17.585938 20.320312 -17.847656 19.851562 -17.847656 Z M 19.851562 -17.847656 "/></g></g></g><g fill="rgb(15.289307%, 16.468811%, 19.219971%)" fill-opacity="1"><g transform="translate(405.796089, 172.506229)"><g><path d="M 25.375 -18.335938 C 23.125 -18.335938 20.652344 -16.886719 19.605469 -14.96875 C 18.367188 -17.132812 16.207031 -18.335938 13.542969 -18.335938 C 11.378906 -18.335938 9.027344 -17.007812 7.914062 -15.195312 L 6.605469 -17.394531 C 6.414062 -17.65625 6.132812 -17.847656 5.804688 -17.847656 L 2.492188 -17.847656 C 2.039062 -17.847656 1.742188 -17.53125 1.742188 -17.078125 L 1.742188 -0.75 C 1.742188 -0.261719 2.003906 0 2.476562 0 L 8.15625 0 C 8.625 0 8.90625 -0.261719 8.90625 -0.75 L 8.90625 -9.671875 C 8.90625 -10.824219 9.933594 -11.867188 11.257812 -11.867188 C 12.773438 -11.867188 13.59375 -10.945312 13.59375 -9.65625 L 13.59375 -0.75 C 13.59375 -0.261719 13.835938 0 14.324219 0 L 19.988281 0 C 20.476562 0 20.738281 -0.261719 20.738281 -0.75 L 20.738281 -9.671875 C 20.738281 -10.824219 21.765625 -11.867188 23.09375 -11.867188 C 24.609375 -11.867188 25.425781 -10.945312 25.425781 -9.65625 L 25.425781 -0.75 C 25.425781 -0.261719 25.671875 0 26.160156 0 L 31.824219 0 C 32.3125 0 32.574219 -0.261719 32.574219 -0.75 L 32.574219 -10.089844 C 32.574219 -15.300781 29.628906 -18.335938 25.375 -18.335938 Z M 25.375 -18.335938 "/></g></g></g><g fill="rgb(15.289307%, 16.468811%, 19.219971%)" fill-opacity="1"><g transform="translate(442.962949, 172.506229)"><g><path d="M 25.375 -18.335938 C 23.125 -18.335938 20.652344 -16.886719 19.605469 -14.96875 C 18.367188 -17.132812 16.207031 -18.335938 13.542969 -18.335938 C 11.378906 -18.335938 9.027344 -17.007812 7.914062 -15.195312 L 6.605469 -17.394531 C 6.414062 -17.65625 6.132812 -17.847656 5.804688 -17.847656 L 2.492188 -17.847656 C 2.039062 -17.847656 1.742188 -17.53125 1.742188 -17.078125 L 1.742188 -0.75 C 1.742188 -0.261719 2.003906 0 2.476562 0 L 8.15625 0 C 8.625 0 8.90625 -0.261719 8.90625 -0.75 L 8.90625 -9.671875 C 8.90625 -10.824219 9.933594 -11.867188 11.257812 -11.867188 C 12.773438 -11.867188 13.59375 -10.945312 13.59375 -9.65625 L 13.59375 -0.75 C 13.59375 -0.261719 13.835938 0 14.324219 0 L 19.988281 0 C 20.476562 0 20.738281 -0.261719 20.738281 -0.75 L 20.738281 -9.671875 C 20.738281 -10.824219 21.765625 -11.867188 23.09375 -11.867188 C 24.609375 -11.867188 25.425781 -10.945312 25.425781 -9.65625 L 25.425781 -0.75 C 25.425781 -0.261719 25.671875 0 26.160156 0 L 31.824219 0 C 32.3125 0 32.574219 -0.261719 32.574219 -0.75 L 32.574219 -10.089844 C 32.574219 -15.300781 29.628906 -18.335938 25.375 -18.335938 Z M 25.375 -18.335938 "/></g></g></g><g fill="rgb(15.289307%, 16.468811%, 19.219971%)" fill-opacity="1"><g transform="translate(480.129809, 172.506229)"><g><path d="M 5.296875 -19.046875 C 7.460938 -19.046875 9.167969 -20.757812 9.167969 -22.917969 C 9.167969 -25.027344 7.460938 -26.785156 5.296875 -26.785156 C 3.15625 -26.785156 1.429688 -25.042969 1.429688 -22.917969 C 1.429688 -20.757812 3.15625 -19.046875 5.296875 -19.046875 Z M 8.171875 -17.847656 L 2.441406 -17.847656 C 1.988281 -17.847656 1.742188 -17.566406 1.742188 -17.132812 L 1.742188 -0.714844 C 1.742188 -0.261719 1.988281 0 2.441406 0 L 8.171875 0 C 8.625 0 8.886719 -0.261719 8.886719 -0.714844 L 8.886719 -17.132812 C 8.886719 -17.566406 8.625 -17.847656 8.171875 -17.847656 Z M 8.171875 -17.847656 "/></g></g></g><g fill="rgb(15.289307%, 16.468811%, 19.219971%)" fill-opacity="1"><g transform="translate(493.7922, 172.506229)"><g><path d="M 9.898438 -11.957031 L 12.425781 -11.957031 C 12.863281 -11.957031 13.105469 -12.21875 13.105469 -12.671875 L 13.105469 -17.132812 C 13.105469 -17.566406 12.863281 -17.847656 12.425781 -17.847656 L 9.882812 -17.847656 L 9.882812 -23.511719 C 9.882812 -24.066406 9.566406 -24.242188 9.027344 -24.121094 L 3.363281 -22.898438 C 2.945312 -22.8125 2.753906 -22.480469 2.753906 -22.046875 L 2.734375 -17.847656 L 1.308594 -17.847656 C 0.871094 -17.847656 0.609375 -17.566406 0.609375 -17.132812 L 0.609375 -12.671875 C 0.609375 -12.21875 0.871094 -11.957031 1.308594 -11.957031 L 2.753906 -11.957031 L 2.753906 -8.105469 C 2.753906 -2.054688 5.925781 0.488281 11.730469 0.488281 C 12.476562 0.488281 12.984375 0.0703125 12.984375 -0.539062 L 12.984375 -5.261719 C 12.984375 -5.839844 12.496094 -6.238281 11.796875 -6.238281 C 10.421875 -6.238281 9.898438 -6.378906 9.898438 -8 Z M 9.898438 -11.957031 "/></g></g></g><g fill="rgb(15.289307%, 16.468811%, 19.219971%)" fill-opacity="1"><g transform="translate(179.318534, 222.006225)"><g><path d="M 19.625 -6.621094 L 11.992188 -6.621094 L 16.851562 -10.613281 C 18.875 -12.269531 20.375 -14.777344 20.375 -17.636719 C 20.375 -23.160156 16.660156 -26.960938 10.875 -26.960938 C 7.476562 -26.960938 3.398438 -25.0625 1.621094 -20.199219 C 1.410156 -19.625 1.601562 -19.136719 2.125 -18.925781 L 6.761719 -17.0625 C 7.425781 -16.800781 8.121094 -16.871094 8.347656 -17.671875 C 8.835938 -19.414062 9.917969 -19.902344 10.960938 -19.902344 C 12.234375 -19.902344 13.246094 -18.960938 13.246094 -17.65625 C 13.246094 -16.921875 12.671875 -16.085938 11.765625 -15.25 L 1.742188 -5.90625 C 1.535156 -5.714844 1.445312 -5.316406 1.445312 -4.671875 L 1.445312 -1.117188 C 1.445312 -0.4375 1.988281 0 2.875 0 L 19.746094 0 C 20.476562 0 20.929688 -0.453125 20.929688 -1.203125 L 20.929688 -5.316406 C 20.929688 -6.132812 20.460938 -6.621094 19.625 -6.621094 Z M 19.625 -6.621094 "/></g></g></g><g fill="rgb(15.289307%, 16.468811%, 19.219971%)" fill-opacity="1"><g transform="translate(204.968375, 222.006225)"><g><path d="M 14.832031 0.488281 C 22.5 0.488281 28.53125 -5.542969 28.53125 -13.226562 C 28.53125 -20.929688 22.5 -26.960938 14.832031 -26.960938 C 7.164062 -26.960938 1.132812 -20.929688 1.132812 -13.226562 C 1.132812 -5.542969 7.164062 0.488281 14.832031 0.488281 Z M 14.832031 -6.65625 C 11.171875 -6.65625 8.296875 -9.550781 8.296875 -13.226562 C 8.296875 -16.941406 11.171875 -19.816406 14.832031 -19.816406 C 18.492188 -19.816406 21.367188 -16.941406 21.367188 -13.226562 C 21.367188 -9.550781 18.492188 -6.65625 14.832031 -6.65625 Z M 14.832031 -9.464844 C 16.921875 -9.464844 18.5625 -11.117188 18.5625 -13.226562 C 18.5625 -15.371094 16.921875 -17.027344 14.832031 -17.027344 C 12.738281 -17.027344 11.101562 -15.371094 11.101562 -13.226562 C 11.101562 -11.117188 12.738281 -9.464844 14.832031 -9.464844 Z M 14.832031 -9.464844 "/></g></g></g><g fill="rgb(15.289307%, 16.468811%, 19.219971%)" fill-opacity="1"><g transform="translate(237.657363, 222.006225)"><g><path d="M 19.625 -6.621094 L 11.992188 -6.621094 L 16.851562 -10.613281 C 18.875 -12.269531 20.375 -14.777344 20.375 -17.636719 C 20.375 -23.160156 16.660156 -26.960938 10.875 -26.960938 C 7.476562 -26.960938 3.398438 -25.0625 1.621094 -20.199219 C 1.410156 -19.625 1.601562 -19.136719 2.125 -18.925781 L 6.761719 -17.0625 C 7.425781 -16.800781 8.121094 -16.871094 8.347656 -17.671875 C 8.835938 -19.414062 9.917969 -19.902344 10.960938 -19.902344 C 12.234375 -19.902344 13.246094 -18.960938 13.246094 -17.65625 C 13.246094 -16.921875 12.671875 -16.085938 11.765625 -15.25 L 1.742188 -5.90625 C 1.535156 -5.714844 1.445312 -5.316406 1.445312 -4.671875 L 1.445312 -1.117188 C 1.445312 -0.4375 1.988281 0 2.875 0 L 19.746094 0 C 20.476562 0 20.929688 -0.453125 20.929688 -1.203125 L 20.929688 -5.316406 C 20.929688 -6.132812 20.460938 -6.621094 19.625 -6.621094 Z M 19.625 -6.621094 "/></g></g></g><g fill="rgb(15.289307%, 16.468811%, 19.219971%)" fill-opacity="1"><g transform="translate(263.307205, 222.006225)"><g><path d="M 19.625 -6.621094 L 11.992188 -6.621094 L 16.851562 -10.613281 C 18.875 -12.269531 20.375 -14.777344 20.375 -17.636719 C 20.375 -23.160156 16.660156 -26.960938 10.875 -26.960938 C 7.476562 -26.960938 3.398438 -25.0625 1.621094 -20.199219 C 1.410156 -19.625 1.601562 -19.136719 2.125 -18.925781 L 6.761719 -17.0625 C 7.425781 -16.800781 8.121094 -16.871094 8.347656 -17.671875 C 8.835938 -19.414062 9.917969 -19.902344 10.960938 -19.902344 C 12.234375 -19.902344 13.246094 -18.960938 13.246094 -17.65625 C 13.246094 -16.921875 12.671875 -16.085938 11.765625 -15.25 L 1.742188 -5.90625 C 1.535156 -5.714844 1.445312 -5.316406 1.445312 -4.671875 L 1.445312 -1.117188 C 1.445312 -0.4375 1.988281 0 2.875 0 L 19.746094 0 C 20.476562 0 20.929688 -0.453125 20.929688 -1.203125 L 20.929688 -5.316406 C 20.929688 -6.132812 20.460938 -6.621094 19.625 -6.621094 Z M 19.625 -6.621094 "/></g></g></g><g fill="rgb(15.289307%, 16.468811%, 19.219971%)" fill-opacity="1"><g transform="translate(200.372438, 250.924378)"><g><path d="M 21.742188 -14.832031 L 18.179688 -14.832031 C 17.828125 -14.832031 17.523438 -14.597656 17.40625 -14.265625 L 14.800781 -6.933594 L 13.386719 -10.875 L 14.8125 -14.148438 C 14.976562 -14.527344 14.820312 -14.832031 14.371094 -14.832031 L 10.808594 -14.832031 C 10.457031 -14.832031 10.152344 -14.597656 10.035156 -14.265625 L 7.429688 -7.011719 L 4.832031 -14.265625 C 4.726562 -14.566406 4.441406 -14.832031 4.050781 -14.832031 L 0.496094 -14.832031 C 0.0664062 -14.832031 -0.125 -14.546875 0.046875 -14.148438 L 6.113281 -0.300781 C 6.277344 0.0664062 6.609375 0.273438 6.933594 0.273438 L 7.984375 0.273438 C 8.347656 0.273438 8.640625 0.0195312 8.777344 -0.300781 L 11.101562 -5.632812 L 13.484375 -0.300781 C 13.648438 0.0664062 13.980469 0.273438 14.304688 0.273438 L 15.359375 0.273438 C 15.71875 0.273438 16.011719 0.0195312 16.148438 -0.300781 L 22.183594 -14.148438 C 22.347656 -14.527344 22.191406 -14.832031 21.742188 -14.832031 Z M 21.742188 -14.832031 "/></g></g></g><g fill="rgb(15.289307%, 16.468811%, 19.219971%)" fill-opacity="1"><g transform="translate(222.600079, 250.924378)"><g><path d="M 7.226562 -10.269531 C 6.367188 -10.269531 5.566406 -9.890625 4.980469 -9.304688 L 4.980469 -14.441406 C 4.980469 -14.695312 4.832031 -14.832031 4.578125 -14.832031 L 1.367188 -14.832031 C 1.113281 -14.832031 0.976562 -14.695312 0.976562 -14.441406 L 0.976562 -0.398438 C 0.976562 -0.144531 1.113281 0 1.367188 0 L 4.578125 0 C 4.832031 0 4.980469 -0.144531 4.980469 -0.398438 L 4.980469 -5.417969 C 4.980469 -6.0625 5.203125 -6.648438 5.945312 -6.648438 C 6.796875 -6.648438 6.902344 -6.132812 6.902344 -5.410156 L 6.902344 -0.417969 C 6.902344 -0.144531 7.039062 0 7.3125 0 L 10.484375 0 C 10.757812 0 10.90625 -0.144531 10.90625 -0.417969 L 10.90625 -5.652344 C 10.90625 -8.570312 9.605469 -10.269531 7.226562 -10.269531 Z M 7.226562 -10.269531 "/></g></g></g><g fill="rgb(15.289307%, 16.468811%, 19.219971%)" fill-opacity="1"><g transform="translate(234.382583, 250.924378)"><g><path d="M 5.867188 -10.269531 C 2.851562 -10.269531 0.488281 -7.917969 0.488281 -4.980469 C 0.488281 -2.058594 2.910156 0.28125 5.90625 0.28125 C 7.214844 0.28125 8.40625 -0.144531 9.34375 -0.859375 C 9.558594 -1.035156 9.585938 -1.257812 9.410156 -1.511719 L 8.179688 -3.269531 C 8.003906 -3.523438 7.800781 -3.613281 7.507812 -3.417969 C 7.207031 -3.222656 6.726562 -3.035156 6.015625 -3.035156 C 5.242188 -3.035156 4.609375 -3.445312 4.460938 -4.050781 L 9.558594 -4.050781 C 10.367188 -4.050781 10.914062 -4.519531 10.914062 -5.203125 C 10.914062 -8.210938 8.863281 -10.269531 5.867188 -10.269531 Z M 5.769531 -6.824219 C 6.425781 -6.824219 6.953125 -6.414062 7.070312 -5.808594 L 4.480469 -5.808594 C 4.636719 -6.386719 5.144531 -6.824219 5.769531 -6.824219 Z M 5.769531 -6.824219 "/></g></g></g><g fill="rgb(15.289307%, 16.468811%, 19.219971%)" fill-opacity="1"><g transform="translate(245.784377, 250.924378)"><g><path d="M 9.839844 -9.175781 C 9.148438 -9.832031 8.121094 -10.269531 7.226562 -10.269531 C 6.296875 -10.269531 5.117188 -9.617188 4.382812 -8.589844 L 3.699219 -9.742188 C 3.59375 -9.890625 3.4375 -9.996094 3.25 -9.996094 L 1.394531 -9.996094 C 1.140625 -9.996094 0.976562 -9.820312 0.976562 -9.566406 L 0.976562 -0.417969 C 0.976562 -0.144531 1.121094 0 1.386719 0 L 4.570312 0 C 4.832031 0 4.988281 -0.144531 4.988281 -0.417969 L 4.988281 -4.785156 C 4.988281 -5.867188 5.722656 -6.824219 6.71875 -6.824219 C 7.058594 -6.824219 7.527344 -6.582031 7.90625 -6.199219 C 8.082031 -6.023438 8.308594 -6.09375 8.484375 -6.367188 L 9.839844 -8.542969 C 9.996094 -8.785156 9.988281 -9.039062 9.839844 -9.175781 Z M 9.839844 -9.175781 "/></g></g></g><g fill="rgb(15.289307%, 16.468811%, 19.219971%)" fill-opacity="1"><g transform="translate(256.014753, 250.924378)"><g><path d="M 5.867188 -10.269531 C 2.851562 -10.269531 0.488281 -7.917969 0.488281 -4.980469 C 0.488281 -2.058594 2.910156 0.28125 5.90625 0.28125 C 7.214844 0.28125 8.40625 -0.144531 9.34375 -0.859375 C 9.558594 -1.035156 9.585938 -1.257812 9.410156 -1.511719 L 8.179688 -3.269531 C 8.003906 -3.523438 7.800781 -3.613281 7.507812 -3.417969 C 7.207031 -3.222656 6.726562 -3.035156 6.015625 -3.035156 C 5.242188 -3.035156 4.609375 -3.445312 4.460938 -4.050781 L 9.558594 -4.050781 C 10.367188 -4.050781 10.914062 -4.519531 10.914062 -5.203125 C 10.914062 -8.210938 8.863281 -10.269531 5.867188 -10.269531 Z M 5.769531 -6.824219 C 6.425781 -6.824219 6.953125 -6.414062 7.070312 -5.808594 L 4.480469 -5.808594 C 4.636719 -6.386719 5.144531 -6.824219 5.769531 -6.824219 Z M 5.769531 -6.824219 "/></g></g></g><g fill="rgb(15.289307%, 16.468811%, 19.219971%)" fill-opacity="1"><g transform="translate(267.416547, 250.924378)"><g/></g></g><g fill="rgb(15.289307%, 16.468811%, 19.219971%)" fill-opacity="1"><g transform="translate(274.425526, 250.924378)"><g><path d="M 6.375 -15.105469 C 3.125 -15.105469 1.347656 -13.679688 1.347656 -10.289062 L 1.347656 -9.996094 L 0.730469 -9.996094 C 0.488281 -9.996094 0.339844 -9.839844 0.339844 -9.597656 L 0.339844 -7.097656 C 0.339844 -6.84375 0.488281 -6.699219 0.730469 -6.699219 L 1.347656 -6.699219 L 1.347656 -0.398438 C 1.347656 -0.144531 1.492188 0 1.738281 0 L 4.960938 0 C 5.203125 0 5.359375 -0.144531 5.359375 -0.398438 L 5.359375 -6.699219 L 6.53125 -6.699219 C 6.777344 -6.699219 6.933594 -6.84375 6.933594 -7.097656 L 6.933594 -9.597656 C 6.933594 -9.839844 6.777344 -9.996094 6.53125 -9.996094 L 5.359375 -9.996094 L 5.359375 -10.347656 C 5.359375 -11.257812 5.644531 -11.335938 6.414062 -11.335938 C 6.804688 -11.335938 7.078125 -11.558594 7.078125 -11.882812 L 7.078125 -14.527344 C 7.078125 -14.871094 6.796875 -15.105469 6.375 -15.105469 Z M 6.375 -15.105469 "/></g></g></g><g fill="rgb(15.289307%, 16.468811%, 19.219971%)" fill-opacity="1"><g transform="translate(281.737122, 250.924378)"><g><path d="M 10.535156 -9.996094 L 8.679688 -9.996094 C 8.492188 -9.996094 8.335938 -9.890625 8.230469 -9.742188 L 7.792969 -8.992188 C 7.109375 -9.820312 6.171875 -10.269531 5.058594 -10.269531 C 2.429688 -10.269531 0.488281 -8.0625 0.488281 -4.960938 C 0.488281 -1.921875 2.429688 0.273438 5.058594 0.273438 C 6.179688 0.273438 7.117188 -0.164062 7.792969 -0.984375 L 8.230469 -0.253906 C 8.335938 -0.105469 8.492188 0 8.679688 0 L 10.535156 0 C 10.789062 0 10.953125 -0.175781 10.953125 -0.429688 L 10.953125 -9.566406 C 10.953125 -9.820312 10.789062 -9.996094 10.535156 -9.996094 Z M 5.839844 -3.660156 C 5.183594 -3.660156 4.53125 -4.207031 4.53125 -4.980469 C 4.53125 -5.761719 5.183594 -6.316406 5.839844 -6.316406 C 6.503906 -6.316406 7.167969 -5.761719 7.167969 -4.980469 C 7.167969 -4.207031 6.503906 -3.660156 5.839844 -3.660156 Z M 5.839844 -3.660156 "/></g></g></g><g fill="rgb(15.289307%, 16.468811%, 19.219971%)" fill-opacity="1"><g transform="translate(293.666053, 250.924378)"><g><path d="M 5.066406 -6.941406 C 5.664062 -6.941406 6.210938 -6.765625 6.667969 -6.492188 C 7.03125 -6.277344 7.390625 -6.289062 7.597656 -6.503906 L 8.882812 -7.847656 C 9.195312 -8.171875 9.253906 -8.386719 8.785156 -8.863281 C 8.003906 -9.65625 6.40625 -10.269531 4.96875 -10.269531 C 2.214844 -10.269531 0.878906 -8.835938 0.878906 -7.1875 C 0.878906 -5.125 2.246094 -4.609375 4.277344 -4.042969 C 5.078125 -3.816406 5.339844 -3.640625 5.339844 -3.378906 C 5.339844 -3.132812 5.117188 -3.074219 4.804688 -3.074219 C 4.34375 -3.074219 3.660156 -3.269531 2.976562 -3.679688 C 2.664062 -3.867188 2.285156 -4.023438 2.039062 -3.769531 L 0.488281 -2.148438 C 0.222656 -1.875 0.214844 -1.582031 0.46875 -1.289062 C 1.257812 -0.371094 3.085938 0.273438 4.792969 0.273438 C 7.566406 0.273438 9.304688 -0.898438 9.304688 -2.851562 C 9.304688 -4.832031 7.808594 -5.339844 5.46875 -5.984375 C 4.785156 -6.171875 4.589844 -6.375 4.589844 -6.570312 C 4.589844 -6.816406 4.773438 -6.941406 5.066406 -6.941406 Z M 5.066406 -6.941406 "/></g></g></g><g fill="rgb(15.289307%, 16.468811%, 19.219971%)" fill-opacity="1"><g transform="translate(303.486434, 250.924378)"><g><path d="M 7.226562 -10.269531 C 6.367188 -10.269531 5.566406 -9.890625 4.980469 -9.304688 L 4.980469 -14.441406 C 4.980469 -14.695312 4.832031 -14.832031 4.578125 -14.832031 L 1.367188 -14.832031 C 1.113281 -14.832031 0.976562 -14.695312 0.976562 -14.441406 L 0.976562 -0.398438 C 0.976562 -0.144531 1.113281 0 1.367188 0 L 4.578125 0 C 4.832031 0 4.980469 -0.144531 4.980469 -0.398438 L 4.980469 -5.417969 C 4.980469 -6.0625 5.203125 -6.648438 5.945312 -6.648438 C 6.796875 -6.648438 6.902344 -6.132812 6.902344 -5.410156 L 6.902344 -0.417969 C 6.902344 -0.144531 7.039062 0 7.3125 0 L 10.484375 0 C 10.757812 0 10.90625 -0.144531 10.90625 -0.417969 L 10.90625 -5.652344 C 10.90625 -8.570312 9.605469 -10.269531 7.226562 -10.269531 Z M 7.226562 -10.269531 "/></g></g></g><g fill="rgb(15.289307%, 16.468811%, 19.219971%)" fill-opacity="1"><g transform="translate(315.268938, 250.924378)"><g><path d="M 2.96875 -10.671875 C 4.179688 -10.671875 5.136719 -11.628906 5.136719 -12.839844 C 5.136719 -14.019531 4.179688 -15.007812 2.96875 -15.007812 C 1.765625 -15.007812 0.800781 -14.03125 0.800781 -12.839844 C 0.800781 -11.628906 1.765625 -10.671875 2.96875 -10.671875 Z M 4.578125 -9.996094 L 1.367188 -9.996094 C 1.113281 -9.996094 0.976562 -9.839844 0.976562 -9.597656 L 0.976562 -0.398438 C 0.976562 -0.144531 1.113281 0 1.367188 0 L 4.578125 0 C 4.832031 0 4.980469 -0.144531 4.980469 -0.398438 L 4.980469 -9.597656 C 4.980469 -9.839844 4.832031 -9.996094 4.578125 -9.996094 Z M 4.578125 -9.996094 "/></g></g></g><g fill="rgb(15.289307%, 16.468811%, 19.219971%)" fill-opacity="1"><g transform="translate(321.223642, 250.924378)"><g><path d="M 0.488281 -5 C 0.488281 -2.050781 2.878906 0.273438 5.917969 0.273438 C 8.941406 0.273438 11.316406 -2.050781 11.316406 -5 C 11.316406 -7.945312 8.941406 -10.269531 5.917969 -10.269531 C 2.878906 -10.269531 0.488281 -7.945312 0.488281 -5 Z M 4.539062 -5 C 4.539062 -5.867188 5.085938 -6.464844 5.898438 -6.464844 C 6.707031 -6.464844 7.265625 -5.867188 7.265625 -5 C 7.265625 -4.128906 6.707031 -3.535156 5.898438 -3.535156 C 5.085938 -3.535156 4.539062 -4.128906 4.539062 -5 Z M 4.539062 -5 "/></g></g></g><g fill="rgb(15.289307%, 16.468811%, 19.219971%)" fill-opacity="1"><g transform="translate(333.02567, 250.924378)"><g><path d="M 7.597656 -10.269531 C 6.386719 -10.269531 5.058594 -9.527344 4.433594 -8.511719 L 3.699219 -9.742188 C 3.59375 -9.890625 3.4375 -9.996094 3.25 -9.996094 L 1.394531 -9.996094 C 1.140625 -9.996094 0.976562 -9.820312 0.976562 -9.566406 L 0.976562 -0.417969 C 0.976562 -0.144531 1.121094 0 1.386719 0 L 4.570312 0 C 4.832031 0 4.988281 -0.144531 4.988281 -0.417969 L 4.988281 -5.417969 C 4.988281 -6.0625 5.574219 -6.648438 6.316406 -6.648438 C 7.167969 -6.648438 7.625 -6.132812 7.625 -5.410156 L 7.625 -0.417969 C 7.625 -0.144531 7.761719 0 8.035156 0 L 11.207031 0 C 11.480469 0 11.628906 -0.144531 11.628906 -0.417969 L 11.628906 -5.652344 C 11.628906 -8.570312 9.976562 -10.269531 7.597656 -10.269531 Z M 7.597656 -10.269531 "/></g></g></g><g fill="rgb(15.289307%, 16.468811%, 19.219971%)" fill-opacity="1"><g transform="translate(345.530548, 250.924378)"><g/></g></g><g fill="rgb(15.289307%, 16.468811%, 19.219971%)" fill-opacity="1"><g transform="translate(352.539527, 250.924378)"><g><path d="M 10.535156 -9.996094 L 8.679688 -9.996094 C 8.492188 -9.996094 8.335938 -9.890625 8.230469 -9.742188 L 7.792969 -8.992188 C 7.109375 -9.820312 6.171875 -10.269531 5.058594 -10.269531 C 2.429688 -10.269531 0.488281 -8.0625 0.488281 -4.960938 C 0.488281 -1.921875 2.429688 0.273438 5.058594 0.273438 C 6.179688 0.273438 7.117188 -0.164062 7.792969 -0.984375 L 8.230469 -0.253906 C 8.335938 -0.105469 8.492188 0 8.679688 0 L 10.535156 0 C 10.789062 0 10.953125 -0.175781 10.953125 -0.429688 L 10.953125 -9.566406 C 10.953125 -9.820312 10.789062 -9.996094 10.535156 -9.996094 Z M 5.839844 -3.660156 C 5.183594 -3.660156 4.53125 -4.207031 4.53125 -4.980469 C 4.53125 -5.761719 5.183594 -6.316406 5.839844 -6.316406 C 6.503906 -6.316406 7.167969 -5.761719 7.167969 -4.980469 C 7.167969 -4.207031 6.503906 -3.660156 5.839844 -3.660156 Z M 5.839844 -3.660156 "/></g></g></g><g fill="rgb(15.289307%, 16.468811%, 19.219971%)" fill-opacity="1"><g transform="translate(364.468459, 250.924378)"><g><path d="M 7.597656 -10.269531 C 6.386719 -10.269531 5.058594 -9.527344 4.433594 -8.511719 L 3.699219 -9.742188 C 3.59375 -9.890625 3.4375 -9.996094 3.25 -9.996094 L 1.394531 -9.996094 C 1.140625 -9.996094 0.976562 -9.820312 0.976562 -9.566406 L 0.976562 -0.417969 C 0.976562 -0.144531 1.121094 0 1.386719 0 L 4.570312 0 C 4.832031 0 4.988281 -0.144531 4.988281 -0.417969 L 4.988281 -5.417969 C 4.988281 -6.0625 5.574219 -6.648438 6.316406 -6.648438 C 7.167969 -6.648438 7.625 -6.132812 7.625 -5.410156 L 7.625 -0.417969 C 7.625 -0.144531 7.761719 0 8.035156 0 L 11.207031 0 C 11.480469 0 11.628906 -0.144531 11.628906 -0.417969 L 11.628906 -5.652344 C 11.628906 -8.570312 9.976562 -10.269531 7.597656 -10.269531 Z M 7.597656 -10.269531 "/></g></g></g><g fill="rgb(15.289307%, 16.468811%, 19.219971%)" fill-opacity="1"><g transform="translate(376.973337, 250.924378)"><g><path d="M 10.984375 -5.066406 L 10.984375 -15.027344 C 10.984375 -15.289062 10.808594 -15.445312 10.554688 -15.445312 L 7.363281 -15.445312 C 7.128906 -15.445312 6.972656 -15.289062 6.972656 -15.027344 L 7 -9.714844 C 6.445312 -10.074219 5.789062 -10.269531 5.058594 -10.269531 C 2.429688 -10.269531 0.488281 -8.0625 0.488281 -4.960938 C 0.488281 -1.921875 2.429688 0.273438 5.058594 0.273438 C 6.191406 0.273438 7.136719 -0.183594 7.820312 -1.023438 L 8.269531 -0.261719 C 8.375 -0.117188 8.53125 -0.0078125 8.71875 -0.0078125 L 10.574219 -0.0078125 C 10.828125 -0.0078125 10.992188 -0.183594 10.992188 -0.4375 L 10.992188 -5.078125 Z M 5.839844 -3.660156 C 5.183594 -3.660156 4.53125 -4.207031 4.53125 -4.980469 C 4.53125 -5.761719 5.183594 -6.316406 5.839844 -6.316406 C 6.503906 -6.316406 7.167969 -5.761719 7.167969 -4.980469 C 7.167969 -4.207031 6.503906 -3.660156 5.839844 -3.660156 Z M 5.839844 -3.660156 "/></g></g></g><g fill="rgb(15.289307%, 16.468811%, 19.219971%)" fill-opacity="1"><g transform="translate(388.941316, 250.924378)"><g/></g></g><g fill="rgb(15.289307%, 16.468811%, 19.219971%)" fill-opacity="1"><g transform="translate(395.950306, 250.924378)"><g><path d="M 5.546875 -6.699219 L 6.960938 -6.699219 C 7.207031 -6.699219 7.34375 -6.84375 7.34375 -7.097656 L 7.34375 -9.597656 C 7.34375 -9.839844 7.207031 -9.996094 6.960938 -9.996094 L 5.535156 -9.996094 L 5.535156 -13.171875 C 5.535156 -13.484375 5.359375 -13.582031 5.058594 -13.511719 L 1.882812 -12.828125 C 1.648438 -12.78125 1.542969 -12.59375 1.542969 -12.351562 L 1.53125 -9.996094 L 0.730469 -9.996094 C 0.488281 -9.996094 0.339844 -9.839844 0.339844 -9.597656 L 0.339844 -7.097656 C 0.339844 -6.84375 0.488281 -6.699219 0.730469 -6.699219 L 1.542969 -6.699219 L 1.542969 -4.539062 C 1.542969 -1.152344 3.320312 0.273438 6.570312 0.273438 C 6.992188 0.273438 7.273438 0.0390625 7.273438 -0.300781 L 7.273438 -2.949219 C 7.273438 -3.269531 7 -3.496094 6.609375 -3.496094 C 5.839844 -3.496094 5.546875 -3.574219 5.546875 -4.480469 Z M 5.546875 -6.699219 "/></g></g></g><g fill="rgb(15.289307%, 16.468811%, 19.219971%)" fill-opacity="1"><g transform="translate(404.081882, 250.924378)"><g><path d="M 5.867188 -10.269531 C 2.851562 -10.269531 0.488281 -7.917969 0.488281 -4.980469 C 0.488281 -2.058594 2.910156 0.28125 5.90625 0.28125 C 7.214844 0.28125 8.40625 -0.144531 9.34375 -0.859375 C 9.558594 -1.035156 9.585938 -1.257812 9.410156 -1.511719 L 8.179688 -3.269531 C 8.003906 -3.523438 7.800781 -3.613281 7.507812 -3.417969 C 7.207031 -3.222656 6.726562 -3.035156 6.015625 -3.035156 C 5.242188 -3.035156 4.609375 -3.445312 4.460938 -4.050781 L 9.558594 -4.050781 C 10.367188 -4.050781 10.914062 -4.519531 10.914062 -5.203125 C 10.914062 -8.210938 8.863281 -10.269531 5.867188 -10.269531 Z M 5.769531 -6.824219 C 6.425781 -6.824219 6.953125 -6.414062 7.070312 -5.808594 L 4.480469 -5.808594 C 4.636719 -6.386719 5.144531 -6.824219 5.769531 -6.824219 Z M 5.769531 -6.824219 "/></g></g></g><g fill="rgb(15.289307%, 16.468811%, 19.219971%)" fill-opacity="1"><g transform="translate(415.483676, 250.924378)"><g><path d="M 5.90625 0.273438 C 6.914062 0.273438 8.414062 -0.253906 9.246094 -0.90625 C 9.429688 -1.054688 9.480469 -1.335938 9.34375 -1.53125 L 7.714844 -3.886719 C 7.566406 -4.101562 7.292969 -4.148438 7.109375 -4.023438 C 6.785156 -3.796875 6.425781 -3.660156 5.964844 -3.660156 C 5.242188 -3.660156 4.648438 -4.226562 4.648438 -5.007812 C 4.648438 -5.808594 5.234375 -6.355469 5.957031 -6.355469 C 6.433594 -6.355469 6.816406 -6.191406 7.128906 -5.957031 C 7.324219 -5.808594 7.585938 -5.847656 7.742188 -6.082031 L 9.332031 -8.53125 C 9.460938 -8.738281 9.421875 -8.992188 9.253906 -9.136719 C 8.550781 -9.761719 7.089844 -10.28125 5.898438 -10.28125 C 2.929688 -10.28125 0.488281 -7.90625 0.488281 -4.988281 C 0.488281 -2.109375 2.929688 0.273438 5.90625 0.273438 Z M 5.90625 0.273438 "/></g></g></g><g fill="rgb(15.289307%, 16.468811%, 19.219971%)" fill-opacity="1"><g transform="translate(425.255236, 250.924378)"><g><path d="M 7.226562 -10.269531 C 6.367188 -10.269531 5.566406 -9.890625 4.980469 -9.304688 L 4.980469 -14.441406 C 4.980469 -14.695312 4.832031 -14.832031 4.578125 -14.832031 L 1.367188 -14.832031 C 1.113281 -14.832031 0.976562 -14.695312 0.976562 -14.441406 L 0.976562 -0.398438 C 0.976562 -0.144531 1.113281 0 1.367188 0 L 4.578125 0 C 4.832031 0 4.980469 -0.144531 4.980469 -0.398438 L 4.980469 -5.417969 C 4.980469 -6.0625 5.203125 -6.648438 5.945312 -6.648438 C 6.796875 -6.648438 6.902344 -6.132812 6.902344 -5.410156 L 6.902344 -0.417969 C 6.902344 -0.144531 7.039062 0 7.3125 0 L 10.484375 0 C 10.757812 0 10.90625 -0.144531 10.90625 -0.417969 L 10.90625 -5.652344 C 10.90625 -8.570312 9.605469 -10.269531 7.226562 -10.269531 Z M 7.226562 -10.269531 "/></g></g></g><g fill="rgb(15.289307%, 16.468811%, 19.219971%)" fill-opacity="1"><g transform="translate(437.037752, 250.924378)"><g/></g></g><g fill="rgb(15.289307%, 16.468811%, 19.219971%)" fill-opacity="1"><g transform="translate(444.046731, 250.924378)"><g><path d="M 14.214844 -10.269531 C 12.957031 -10.269531 11.570312 -9.460938 10.984375 -8.386719 C 10.289062 -9.597656 9.078125 -10.269531 7.585938 -10.269531 C 6.375 -10.269531 5.058594 -9.527344 4.433594 -8.511719 L 3.699219 -9.742188 C 3.59375 -9.890625 3.4375 -9.996094 3.25 -9.996094 L 1.394531 -9.996094 C 1.140625 -9.996094 0.976562 -9.820312 0.976562 -9.566406 L 0.976562 -0.417969 C 0.976562 -0.144531 1.121094 0 1.386719 0 L 4.570312 0 C 4.832031 0 4.988281 -0.144531 4.988281 -0.417969 L 4.988281 -5.417969 C 4.988281 -6.0625 5.566406 -6.648438 6.308594 -6.648438 C 7.15625 -6.648438 7.617188 -6.132812 7.617188 -5.410156 L 7.617188 -0.417969 C 7.617188 -0.144531 7.753906 0 8.023438 0 L 11.199219 0 C 11.472656 0 11.617188 -0.144531 11.617188 -0.417969 L 11.617188 -5.417969 C 11.617188 -6.0625 12.195312 -6.648438 12.9375 -6.648438 C 13.785156 -6.648438 14.246094 -6.132812 14.246094 -5.410156 L 14.246094 -0.417969 C 14.246094 -0.144531 14.382812 0 14.65625 0 L 17.828125 0 C 18.101562 0 18.246094 -0.144531 18.246094 -0.417969 L 18.246094 -5.652344 C 18.246094 -8.570312 16.597656 -10.269531 14.214844 -10.269531 Z M 14.214844 -10.269531 "/></g></g></g><g fill="rgb(15.289307%, 16.468811%, 19.219971%)" fill-opacity="1"><g transform="translate(463.170105, 250.924378)"><g><path d="M 5.867188 -10.269531 C 2.851562 -10.269531 0.488281 -7.917969 0.488281 -4.980469 C 0.488281 -2.058594 2.910156 0.28125 5.90625 0.28125 C 7.214844 0.28125 8.40625 -0.144531 9.34375 -0.859375 C 9.558594 -1.035156 9.585938 -1.257812 9.410156 -1.511719 L 8.179688 -3.269531 C 8.003906 -3.523438 7.800781 -3.613281 7.507812 -3.417969 C 7.207031 -3.222656 6.726562 -3.035156 6.015625 -3.035156 C 5.242188 -3.035156 4.609375 -3.445312 4.460938 -4.050781 L 9.558594 -4.050781 C 10.367188 -4.050781 10.914062 -4.519531 10.914062 -5.203125 C 10.914062 -8.210938 8.863281 -10.269531 5.867188 -10.269531 Z M 5.769531 -6.824219 C 6.425781 -6.824219 6.953125 -6.414062 7.070312 -5.808594 L 4.480469 -5.808594 C 4.636719 -6.386719 5.144531 -6.824219 5.769531 -6.824219 Z M 5.769531 -6.824219 "/></g></g></g><g fill="rgb(15.289307%, 16.468811%, 19.219971%)" fill-opacity="1"><g transform="translate(474.571899, 250.924378)"><g><path d="M 5.867188 -10.269531 C 2.851562 -10.269531 0.488281 -7.917969 0.488281 -4.980469 C 0.488281 -2.058594 2.910156 0.28125 5.90625 0.28125 C 7.214844 0.28125 8.40625 -0.144531 9.34375 -0.859375 C 9.558594 -1.035156 9.585938 -1.257812 9.410156 -1.511719 L 8.179688 -3.269531 C 8.003906 -3.523438 7.800781 -3.613281 7.507812 -3.417969 C 7.207031 -3.222656 6.726562 -3.035156 6.015625 -3.035156 C 5.242188 -3.035156 4.609375 -3.445312 4.460938 -4.050781 L 9.558594 -4.050781 C 10.367188 -4.050781 10.914062 -4.519531 10.914062 -5.203125 C 10.914062 -8.210938 8.863281 -10.269531 5.867188 -10.269531 Z M 5.769531 -6.824219 C 6.425781 -6.824219 6.953125 -6.414062 7.070312 -5.808594 L 4.480469 -5.808594 C 4.636719 -6.386719 5.144531 -6.824219 5.769531 -6.824219 Z M 5.769531 -6.824219 "/></g></g></g><g fill="rgb(15.289307%, 16.468811%, 19.219971%)" fill-opacity="1"><g transform="translate(485.973692, 250.924378)"><g><path d="M 5.546875 -6.699219 L 6.960938 -6.699219 C 7.207031 -6.699219 7.34375 -6.84375 7.34375 -7.097656 L 7.34375 -9.597656 C 7.34375 -9.839844 7.207031 -9.996094 6.960938 -9.996094 L 5.535156 -9.996094 L 5.535156 -13.171875 C 5.535156 -13.484375 5.359375 -13.582031 5.058594 -13.511719 L 1.882812 -12.828125 C 1.648438 -12.78125 1.542969 -12.59375 1.542969 -12.351562 L 1.53125 -9.996094 L 0.730469 -9.996094 C 0.488281 -9.996094 0.339844 -9.839844 0.339844 -9.597656 L 0.339844 -7.097656 C 0.339844 -6.84375 0.488281 -6.699219 0.730469 -6.699219 L 1.542969 -6.699219 L 1.542969 -4.539062 C 1.542969 -1.152344 3.320312 0.273438 6.570312 0.273438 C 6.992188 0.273438 7.273438 0.0390625 7.273438 -0.300781 L 7.273438 -2.949219 C 7.273438 -3.269531 7 -3.496094 6.609375 -3.496094 C 5.839844 -3.496094 5.546875 -3.574219 5.546875 -4.480469 Z M 5.546875 -6.699219 "/></g></g></g><g fill="rgb(15.289307%, 16.468811%, 19.219971%)" fill-opacity="1"><g transform="translate(494.105268, 250.924378)"><g><path d="M 5.066406 -6.941406 C 5.664062 -6.941406 6.210938 -6.765625 6.667969 -6.492188 C 7.03125 -6.277344 7.390625 -6.289062 7.597656 -6.503906 L 8.882812 -7.847656 C 9.195312 -8.171875 9.253906 -8.386719 8.785156 -8.863281 C 8.003906 -9.65625 6.40625 -10.269531 4.96875 -10.269531 C 2.214844 -10.269531 0.878906 -8.835938 0.878906 -7.1875 C 0.878906 -5.125 2.246094 -4.609375 4.277344 -4.042969 C 5.078125 -3.816406 5.339844 -3.640625 5.339844 -3.378906 C 5.339844 -3.132812 5.117188 -3.074219 4.804688 -3.074219 C 4.34375 -3.074219 3.660156 -3.269531 2.976562 -3.679688 C 2.664062 -3.867188 2.285156 -4.023438 2.039062 -3.769531 L 0.488281 -2.148438 C 0.222656 -1.875 0.214844 -1.582031 0.46875 -1.289062 C 1.257812 -0.371094 3.085938 0.273438 4.792969 0.273438 C 7.566406 0.273438 9.304688 -0.898438 9.304688 -2.851562 C 9.304688 -4.832031 7.808594 -5.339844 5.46875 -5.984375 C 4.785156 -6.171875 4.589844 -6.375 4.589844 -6.570312 C 4.589844 -6.816406 4.773438 -6.941406 5.066406 -6.941406 Z M 5.066406 -6.941406 "/></g></g></g></svg>