<svg xmlns="http://www.w3.org/2000/svg" xmlns:xlink="http://www.w3.org/1999/xlink" width="525" zoomAndPan="magnify" viewBox="0 0 525 374.999991" height="374.999991" preserveAspectRatio="xMidYMid meet" version="1.0"><defs><g/><clipPath id="id1"><path d="M 4.730469 96.195312 L 111 96.195312 L 111 219 L 4.730469 219 Z M 4.730469 96.195312 " clip-rule="nonzero"/></clipPath><clipPath id="id2"><path d="M 48 128 L 150.980469 128 L 150.980469 250.695312 L 48 250.695312 Z M 48 128 " clip-rule="nonzero"/></clipPath></defs><g clip-path="url(#id1)"><path fill="rgb(92.549133%, 32.159424%, 25.878906%)" d="M 102.398438 190.664062 L 99.25 187.511719 C 90.921875 196.828125 78.828125 202.699219 65.394531 202.699219 C 43.3125 202.699219 24.863281 186.839844 20.773438 165.890625 L 26.441406 165.890625 C 30.4375 183.75 46.382812 197.140625 65.394531 197.140625 C 77.300781 197.140625 88.003906 191.890625 95.324219 183.578125 L 87.1875 175.550781 C 87.207031 175.527344 87.226562 175.503906 87.25 175.480469 L 84.085938 172.308594 C 79.671875 177.765625 72.933594 181.253906 65.394531 181.253906 C 53.582031 181.253906 43.730469 172.683594 41.707031 161.421875 L 37.1875 161.421875 C 39.257812 175.15625 51.121094 185.71875 65.394531 185.71875 C 72.523438 185.71875 79.050781 183.082031 84.058594 178.730469 L 88.828125 183.785156 C 82.574219 189.316406 74.371094 192.675781 65.394531 192.675781 C 48.265625 192.675781 33.9375 180.441406 30.644531 164.238281 L 30.644531 161.421875 L 15.65625 161.421875 C 17.832031 187.011719 39.308594 207.164062 65.394531 207.164062 C 78.371094 207.164062 90.203125 202.171875 99.085938 194.003906 L 103.496094 198.683594 C 93.460938 207.9375 80.078125 213.601562 65.394531 213.601562 C 35.765625 213.601562 11.40625 190.5625 9.210938 161.421875 L 4.746094 161.421875 C 6.949219 193.03125 33.308594 218.066406 65.394531 218.066406 C 83.058594 218.066406 98.984375 210.480469 110.097656 198.386719 C 110.097656 198.386719 102.347656 190.726562 102.398438 190.664062 Z M 20.140625 152.726562 L 4.75 152.726562 C 7.007812 121.171875 33.347656 96.1875 65.394531 96.1875 C 83.054688 96.1875 98.976562 103.777344 110.097656 115.871094 L 106.945312 119.027344 C 96.640625 107.738281 81.824219 100.652344 65.394531 100.652344 C 37.296875 100.652344 13.9375 121.375 9.726562 148.371094 L 16.238281 148.371094 C 20.382812 124.941406 40.847656 107.09375 65.394531 107.09375 C 80.054688 107.09375 93.261719 113.464844 102.402344 123.582031 L 102.019531 124.238281 L 92.878906 133.914062 L 92.167969 133.84375 C 85.660156 126.339844 76.070312 121.585938 65.394531 121.585938 C 48.851562 121.585938 34.921875 132.992188 31.019531 148.371094 L 38.242188 148.371094 C 41.941406 136.878906 52.710938 128.535156 65.394531 128.535156 C 74.15625 128.535156 82.011719 132.519531 87.242188 138.777344 L 84.085938 141.945312 C 79.667969 136.492188 72.929688 133 65.394531 133 C 53.621094 133 43.792969 141.515625 41.726562 152.726562 L 25.71875 152.726562 C 27.910156 132.726562 44.867188 117.117188 65.394531 117.117188 C 75.859375 117.117188 85.394531 121.175781 92.519531 127.804688 L 96.328125 123.769531 C 88.207031 116.199219 77.332031 111.558594 65.394531 111.558594 C 41.808594 111.558594 22.355469 129.65625 20.140625 152.726562 " fill-opacity="1" fill-rule="nonzero"/></g><g clip-path="url(#id2)"><path fill="rgb(15.289307%, 16.468811%, 19.219971%)" d="M 143.25 223.285156 L 140.101562 220.125 C 131.773438 229.445312 119.675781 235.316406 106.242188 235.316406 C 93.175781 235.316406 81.382812 229.761719 73.082031 220.886719 C 71.246094 221.105469 69.394531 221.246094 67.53125 221.304688 C 76.691406 232.574219 90.644531 239.78125 106.242188 239.78125 C 119.21875 239.78125 131.050781 234.789062 139.9375 226.621094 L 144.347656 231.300781 C 134.3125 240.554688 120.925781 246.21875 106.242188 246.21875 C 86.722656 246.21875 69.488281 236.21875 59.375 221.058594 C 57.441406 220.878906 55.523438 220.609375 53.625 220.257812 C 64.160156 238.433594 83.800781 250.683594 106.242188 250.683594 C 123.90625 250.683594 139.832031 243.097656 150.949219 231.003906 C 150.949219 231.003906 143.195312 223.34375 143.25 223.285156 Z M 106.242188 229.757812 C 96.117188 229.757812 86.859375 225.960938 79.816406 219.707031 C 81.585938 219.296875 83.339844 218.808594 85.070312 218.246094 C 90.984375 222.671875 98.316406 225.292969 106.242188 225.292969 C 115.21875 225.292969 123.425781 221.933594 129.679688 216.402344 L 124.90625 211.347656 C 119.902344 215.699219 113.371094 218.335938 106.242188 218.335938 C 101.46875 218.335938 96.964844 217.15625 93.003906 215.066406 C 94.695312 214.253906 96.355469 213.367188 97.972656 212.402344 C 100.550781 213.351562 103.335938 213.871094 106.242188 213.871094 C 113.785156 213.871094 120.519531 210.378906 124.933594 204.925781 L 128.097656 208.097656 C 128.078125 208.121094 128.058594 208.144531 128.035156 208.167969 L 136.175781 216.191406 C 128.855469 224.507812 118.148438 229.757812 106.242188 229.757812 Z M 106.242188 128.804688 C 104.839844 128.804688 103.453125 128.851562 102.070312 128.949219 L 97.320312 133.980469 C 100.226562 133.511719 103.207031 133.269531 106.242188 133.269531 C 122.675781 133.269531 137.488281 140.359375 147.796875 151.644531 L 150.949219 148.488281 C 139.828125 136.394531 123.902344 128.804688 106.242188 128.804688 Z M 73.960938 138.125 C 62.363281 145.4375 53.390625 156.566406 48.8125 169.734375 C 49.832031 171.085938 51.011719 172.300781 52.320312 173.359375 C 56.527344 159.480469 65.933594 147.84375 78.253906 140.746094 C 76.925781 139.695312 75.484375 138.816406 73.960938 138.125 Z M 106.242188 161.152344 C 98.34375 161.152344 91.183594 164.390625 86.015625 169.609375 L 89.160156 172.765625 C 93.527344 168.355469 99.570312 165.621094 106.242188 165.621094 C 113.78125 165.621094 120.515625 169.109375 124.933594 174.558594 L 128.09375 171.394531 C 122.863281 165.140625 115.007812 161.152344 106.242188 161.152344 Z M 143.253906 156.199219 L 142.871094 156.855469 L 133.730469 166.53125 L 133.015625 166.460938 C 126.511719 158.953125 116.917969 154.203125 106.242188 154.203125 C 91.398438 154.203125 78.664062 163.386719 73.382812 176.382812 C 71.71875 177.078125 69.957031 177.554688 68.144531 177.796875 C 73.226562 161.554688 88.382812 149.734375 106.242188 149.734375 C 116.707031 149.734375 126.242188 153.796875 133.367188 160.421875 L 137.175781 156.390625 C 129.058594 148.816406 118.183594 144.179688 106.242188 144.179688 C 85.3125 144.179688 67.636719 158.429688 62.375 177.761719 C 60.882812 177.542969 59.4375 177.167969 58.058594 176.648438 C 61.699219 163.207031 70.800781 152 82.816406 145.574219 C 84.214844 144.824219 85.652344 144.140625 87.125 143.527344 C 93.015625 141.066406 99.476562 139.710938 106.242188 139.710938 C 120.90625 139.710938 134.109375 146.082031 143.253906 156.199219 " fill-opacity="1" fill-rule="nonzero"/></g><g fill="rgb(15.289307%, 16.468811%, 19.219971%)" fill-opacity="1"><g transform="translate(151.321549, 156.952526)"><g><path d="M 23.152344 -28.613281 L 3.671875 -28.613281 C 2.902344 -28.613281 2.449219 -28.164062 2.449219 -27.410156 L 2.449219 -1.1875 C 2.449219 -0.472656 2.902344 0 3.671875 0 L 9.910156 0 C 10.664062 0 11.113281 -0.472656 11.113281 -1.1875 L 11.113281 -8.457031 L 20.363281 -8.457031 C 21.230469 -8.457031 21.757812 -8.949219 21.757812 -9.71875 L 21.757812 -13.75 C 21.757812 -14.582031 21.230469 -15.050781 20.363281 -15.050781 L 11.113281 -15.050781 L 11.113281 -20.421875 L 23.152344 -20.421875 C 23.925781 -20.421875 24.375 -20.871094 24.375 -21.644531 L 24.375 -27.390625 C 24.375 -28.164062 23.925781 -28.613281 23.152344 -28.613281 Z M 23.152344 -28.613281 "/></g></g></g><g fill="rgb(15.289307%, 16.468811%, 19.219971%)" fill-opacity="1"><g transform="translate(179.974649, 156.952526)"><g><path d="M 20.324219 -19.289062 L 16.746094 -19.289062 C 16.390625 -19.289062 16.085938 -19.082031 15.878906 -18.800781 L 15.03125 -17.351562 C 13.714844 -18.949219 11.90625 -19.816406 9.757812 -19.816406 C 4.691406 -19.816406 0.941406 -15.558594 0.941406 -9.570312 C 0.941406 -3.710938 4.691406 0.527344 9.757812 0.527344 C 11.925781 0.527344 13.734375 -0.320312 15.03125 -1.902344 L 15.878906 -0.488281 C 16.085938 -0.207031 16.390625 0 16.746094 0 L 20.324219 0 C 20.816406 0 21.136719 -0.339844 21.136719 -0.828125 L 21.136719 -18.460938 C 21.136719 -18.949219 20.816406 -19.289062 20.324219 -19.289062 Z M 11.265625 -7.0625 C 10.003906 -7.0625 8.742188 -8.117188 8.742188 -9.605469 C 8.742188 -11.113281 10.003906 -12.1875 11.265625 -12.1875 C 12.546875 -12.1875 13.828125 -11.113281 13.828125 -9.605469 C 13.828125 -8.117188 12.546875 -7.0625 11.265625 -7.0625 Z M 11.265625 -7.0625 "/></g></g></g><g fill="rgb(15.289307%, 16.468811%, 19.219971%)" fill-opacity="1"><g transform="translate(206.273128, 156.952526)"><g><path d="M 9.777344 -13.394531 C 10.925781 -13.394531 11.980469 -13.054688 12.867188 -12.527344 C 13.5625 -12.113281 14.261719 -12.132812 14.65625 -12.546875 L 17.140625 -15.144531 C 17.746094 -15.765625 17.859375 -16.183594 16.953125 -17.105469 C 15.445312 -18.628906 12.359375 -19.816406 9.589844 -19.816406 C 4.277344 -19.816406 1.695312 -17.046875 1.695312 -13.863281 C 1.695312 -9.890625 4.332031 -8.890625 8.25 -7.800781 C 9.796875 -7.367188 10.304688 -7.027344 10.304688 -6.519531 C 10.304688 -6.046875 9.871094 -5.933594 9.269531 -5.933594 C 8.382812 -5.933594 7.0625 -6.3125 5.746094 -7.101562 C 5.144531 -7.460938 4.40625 -7.761719 3.9375 -7.269531 L 0.941406 -4.144531 C 0.433594 -3.617188 0.414062 -3.050781 0.902344 -2.488281 C 2.429688 -0.714844 5.953125 0.527344 9.25 0.527344 C 14.597656 0.527344 17.953125 -1.734375 17.953125 -5.5 C 17.953125 -9.324219 15.070312 -10.304688 10.550781 -11.546875 C 9.230469 -11.90625 8.855469 -12.300781 8.855469 -12.679688 C 8.855469 -13.148438 9.210938 -13.394531 9.777344 -13.394531 Z M 9.777344 -13.394531 "/></g></g></g><g fill="rgb(15.289307%, 16.468811%, 19.219971%)" fill-opacity="1"><g transform="translate(228.502816, 156.952526)"><g><path d="M 13.941406 -19.816406 C 12.28125 -19.816406 10.738281 -19.082031 9.605469 -17.953125 L 9.605469 -27.859375 C 9.605469 -28.351562 9.324219 -28.613281 8.835938 -28.613281 L 2.636719 -28.613281 C 2.148438 -28.613281 1.882812 -28.351562 1.882812 -27.859375 L 1.882812 -0.773438 C 1.882812 -0.28125 2.148438 0 2.636719 0 L 8.835938 0 C 9.324219 0 9.605469 -0.28125 9.605469 -0.773438 L 9.605469 -10.453125 C 9.605469 -11.699219 10.039062 -12.828125 11.472656 -12.828125 C 13.109375 -12.828125 13.320312 -11.832031 13.320312 -10.4375 L 13.320312 -0.808594 C 13.320312 -0.28125 13.582031 0 14.109375 0 L 20.230469 0 C 20.757812 0 21.042969 -0.28125 21.042969 -0.808594 L 21.042969 -10.90625 C 21.042969 -16.539062 18.535156 -19.816406 13.941406 -19.816406 Z M 13.941406 -19.816406 "/></g></g></g><g fill="rgb(15.289307%, 16.468811%, 19.219971%)" fill-opacity="1"><g transform="translate(254.518743, 156.952526)"><g><path d="M 5.726562 -20.589844 C 8.0625 -20.589844 9.910156 -22.4375 9.910156 -24.773438 C 9.910156 -27.050781 8.0625 -28.953125 5.726562 -28.953125 C 3.410156 -28.953125 1.542969 -27.070312 1.542969 -24.773438 C 1.542969 -22.4375 3.410156 -20.589844 5.726562 -20.589844 Z M 8.835938 -19.289062 L 2.636719 -19.289062 C 2.148438 -19.289062 1.882812 -18.988281 1.882812 -18.519531 L 1.882812 -0.773438 C 1.882812 -0.28125 2.148438 0 2.636719 0 L 8.835938 0 C 9.324219 0 9.605469 -0.28125 9.605469 -0.773438 L 9.605469 -18.519531 C 9.605469 -18.988281 9.324219 -19.289062 8.835938 -19.289062 Z M 8.835938 -19.289062 "/></g></g></g><g fill="rgb(15.289307%, 16.468811%, 19.219971%)" fill-opacity="1"><g transform="translate(269.28899, 156.952526)"><g><path d="M 0.941406 -9.644531 C 0.941406 -3.957031 5.558594 0.527344 11.414062 0.527344 C 17.253906 0.527344 21.832031 -3.957031 21.832031 -9.644531 C 21.832031 -15.335938 17.253906 -19.816406 11.414062 -19.816406 C 5.558594 -19.816406 0.941406 -15.335938 0.941406 -9.644531 Z M 8.757812 -9.644531 C 8.757812 -11.320312 9.816406 -12.46875 11.378906 -12.46875 C 12.941406 -12.46875 14.015625 -11.320312 14.015625 -9.644531 C 14.015625 -7.96875 12.941406 -6.820312 11.378906 -6.820312 C 9.816406 -6.820312 8.757812 -7.96875 8.757812 -9.644531 Z M 8.757812 -9.644531 "/></g></g></g><g fill="rgb(15.289307%, 16.468811%, 19.219971%)" fill-opacity="1"><g transform="translate(295.342585, 156.952526)"><g><path d="M 14.65625 -19.816406 C 12.320312 -19.816406 9.757812 -18.386719 8.550781 -16.425781 L 7.140625 -18.800781 C 6.933594 -19.082031 6.632812 -19.289062 6.273438 -19.289062 L 2.695312 -19.289062 C 2.203125 -19.289062 1.882812 -18.949219 1.882812 -18.460938 L 1.882812 -0.808594 C 1.882812 -0.28125 2.167969 0 2.675781 0 L 8.816406 0 C 9.324219 0 9.625 -0.28125 9.625 -0.808594 L 9.625 -10.453125 C 9.625 -11.699219 10.757812 -12.828125 12.1875 -12.828125 C 13.828125 -12.828125 14.710938 -11.832031 14.710938 -10.4375 L 14.710938 -0.808594 C 14.710938 -0.28125 14.976562 0 15.503906 0 L 21.625 0 C 22.152344 0 22.4375 -0.28125 22.4375 -0.808594 L 22.4375 -10.90625 C 22.4375 -16.539062 19.253906 -19.816406 14.65625 -19.816406 Z M 14.65625 -19.816406 "/></g></g></g><g fill="rgb(15.289307%, 16.468811%, 19.219971%)" fill-opacity="1"><g transform="translate(322.752442, 156.952526)"><g/></g></g><g fill="rgb(15.289307%, 16.468811%, 19.219971%)" fill-opacity="1"><g transform="translate(339.557083, 156.952526)"><g><path d="M 13.734375 0.527344 C 19.855469 0.527344 24.601562 -3.109375 24.601562 -8.910156 C 24.601562 -14.617188 20.570312 -16.164062 15.824219 -17.5 C 12.960938 -18.308594 11.152344 -18.914062 11.152344 -19.855469 C 11.152344 -20.535156 11.867188 -20.910156 13.148438 -20.910156 C 14.054688 -20.910156 15.296875 -20.402344 16.503906 -19.6875 C 17.40625 -19.15625 18.085938 -18.96875 18.894531 -19.910156 L 22.230469 -23.753906 C 22.792969 -24.414062 22.757812 -25.222656 22.210938 -25.808594 C 20.382812 -27.75 16.917969 -29.140625 13.582031 -29.140625 C 6.914062 -29.140625 2.675781 -25.5625 2.675781 -19.949219 C 2.675781 -15.109375 5.125 -12.847656 11.378906 -11.019531 C 14.976562 -9.964844 15.636719 -9.589844 15.636719 -8.757812 C 15.636719 -8.101562 14.957031 -7.722656 13.355469 -7.722656 C 11.492188 -7.722656 9.605469 -8.742188 7.96875 -10.003906 C 7.308594 -10.511719 6.613281 -10.550781 6.160156 -10.078125 L 2.015625 -5.914062 C 1.449219 -5.332031 1.355469 -4.671875 1.734375 -4.199219 C 4.070312 -1.28125 8.777344 0.527344 13.734375 0.527344 Z M 13.734375 0.527344 "/></g></g></g><g fill="rgb(15.289307%, 16.468811%, 19.219971%)" fill-opacity="1"><g transform="translate(368.756463, 156.952526)"><g><path d="M 21.457031 -19.289062 L 15.316406 -19.289062 C 14.804688 -19.289062 14.503906 -19.007812 14.503906 -18.480469 L 14.503906 -8.835938 C 14.503906 -7.589844 13.375 -6.460938 11.941406 -6.460938 C 10.304688 -6.460938 9.417969 -7.460938 9.417969 -8.855469 L 9.417969 -18.480469 C 9.417969 -19.007812 9.15625 -19.289062 8.628906 -19.289062 L 2.503906 -19.289062 C 1.976562 -19.289062 1.695312 -19.007812 1.695312 -18.480469 L 1.695312 -8.382812 C 1.695312 -2.75 4.878906 0.527344 9.476562 0.527344 C 11.8125 0.527344 14.375 -0.902344 15.578125 -2.863281 L 16.992188 -0.488281 C 17.199219 -0.207031 17.5 0 17.859375 0 L 21.4375 0 C 21.925781 0 22.246094 -0.339844 22.246094 -0.828125 L 22.246094 -18.480469 C 22.246094 -19.007812 21.964844 -19.289062 21.457031 -19.289062 Z M 21.457031 -19.289062 "/></g></g></g><g fill="rgb(15.289307%, 16.468811%, 19.219971%)" fill-opacity="1"><g transform="translate(396.16632, 156.952526)"><g><path d="M 27.429688 -19.816406 C 24.996094 -19.816406 22.324219 -18.253906 21.191406 -16.183594 C 19.855469 -18.519531 17.519531 -19.816406 14.636719 -19.816406 C 12.300781 -19.816406 9.757812 -18.386719 8.550781 -16.425781 L 7.140625 -18.800781 C 6.933594 -19.082031 6.632812 -19.289062 6.273438 -19.289062 L 2.695312 -19.289062 C 2.203125 -19.289062 1.882812 -18.949219 1.882812 -18.460938 L 1.882812 -0.808594 C 1.882812 -0.28125 2.167969 0 2.675781 0 L 8.816406 0 C 9.324219 0 9.625 -0.28125 9.625 -0.808594 L 9.625 -10.453125 C 9.625 -11.699219 10.738281 -12.828125 12.167969 -12.828125 C 13.808594 -12.828125 14.695312 -11.832031 14.695312 -10.4375 L 14.695312 -0.808594 C 14.695312 -0.28125 14.957031 0 15.484375 0 L 21.605469 0 C 22.132812 0 22.417969 -0.28125 22.417969 -0.808594 L 22.417969 -10.453125 C 22.417969 -11.699219 23.527344 -12.828125 24.960938 -12.828125 C 26.597656 -12.828125 27.484375 -11.832031 27.484375 -10.4375 L 27.484375 -0.808594 C 27.484375 -0.28125 27.75 0 28.277344 0 L 34.398438 0 C 34.925781 0 35.207031 -0.28125 35.207031 -0.808594 L 35.207031 -10.90625 C 35.207031 -16.539062 32.023438 -19.816406 27.429688 -19.816406 Z M 27.429688 -19.816406 "/></g></g></g><g fill="rgb(15.289307%, 16.468811%, 19.219971%)" fill-opacity="1"><g transform="translate(436.347645, 156.952526)"><g><path d="M 27.429688 -19.816406 C 24.996094 -19.816406 22.324219 -18.253906 21.191406 -16.183594 C 19.855469 -18.519531 17.519531 -19.816406 14.636719 -19.816406 C 12.300781 -19.816406 9.757812 -18.386719 8.550781 -16.425781 L 7.140625 -18.800781 C 6.933594 -19.082031 6.632812 -19.289062 6.273438 -19.289062 L 2.695312 -19.289062 C 2.203125 -19.289062 1.882812 -18.949219 1.882812 -18.460938 L 1.882812 -0.808594 C 1.882812 -0.28125 2.167969 0 2.675781 0 L 8.816406 0 C 9.324219 0 9.625 -0.28125 9.625 -0.808594 L 9.625 -10.453125 C 9.625 -11.699219 10.738281 -12.828125 12.167969 -12.828125 C 13.808594 -12.828125 14.695312 -11.832031 14.695312 -10.4375 L 14.695312 -0.808594 C 14.695312 -0.28125 14.957031 0 15.484375 0 L 21.605469 0 C 22.132812 0 22.417969 -0.28125 22.417969 -0.808594 L 22.417969 -10.453125 C 22.417969 -11.699219 23.527344 -12.828125 24.960938 -12.828125 C 26.597656 -12.828125 27.484375 -11.832031 27.484375 -10.4375 L 27.484375 -0.808594 C 27.484375 -0.28125 27.75 0 28.277344 0 L 34.398438 0 C 34.925781 0 35.207031 -0.28125 35.207031 -0.808594 L 35.207031 -10.90625 C 35.207031 -16.539062 32.023438 -19.816406 27.429688 -19.816406 Z M 27.429688 -19.816406 "/></g></g></g><g fill="rgb(15.289307%, 16.468811%, 19.219971%)" fill-opacity="1"><g transform="translate(476.528971, 156.952526)"><g><path d="M 5.726562 -20.589844 C 8.0625 -20.589844 9.910156 -22.4375 9.910156 -24.773438 C 9.910156 -27.050781 8.0625 -28.953125 5.726562 -28.953125 C 3.410156 -28.953125 1.542969 -27.070312 1.542969 -24.773438 C 1.542969 -22.4375 3.410156 -20.589844 5.726562 -20.589844 Z M 8.835938 -19.289062 L 2.636719 -19.289062 C 2.148438 -19.289062 1.882812 -18.988281 1.882812 -18.519531 L 1.882812 -0.773438 C 1.882812 -0.28125 2.148438 0 2.636719 0 L 8.835938 0 C 9.324219 0 9.605469 -0.28125 9.605469 -0.773438 L 9.605469 -18.519531 C 9.605469 -18.988281 9.324219 -19.289062 8.835938 -19.289062 Z M 8.835938 -19.289062 "/></g></g></g><g fill="rgb(15.289307%, 16.468811%, 19.219971%)" fill-opacity="1"><g transform="translate(491.299219, 156.952526)"><g><path d="M 10.699219 -12.921875 L 13.429688 -12.921875 C 13.902344 -12.921875 14.167969 -13.207031 14.167969 -13.695312 L 14.167969 -18.519531 C 14.167969 -18.988281 13.902344 -19.289062 13.429688 -19.289062 L 10.679688 -19.289062 L 10.679688 -25.414062 C 10.679688 -26.015625 10.34375 -26.203125 9.757812 -26.070312 L 3.636719 -24.753906 C 3.183594 -24.660156 2.976562 -24.300781 2.976562 -23.828125 L 2.957031 -19.289062 L 1.414062 -19.289062 C 0.941406 -19.289062 0.660156 -18.988281 0.660156 -18.519531 L 0.660156 -13.695312 C 0.660156 -13.207031 0.941406 -12.921875 1.414062 -12.921875 L 2.976562 -12.921875 L 2.976562 -8.757812 C 2.976562 -2.222656 6.40625 0.527344 12.679688 0.527344 C 13.488281 0.527344 14.035156 0.0742188 14.035156 -0.582031 L 14.035156 -5.6875 C 14.035156 -6.3125 13.507812 -6.742188 12.753906 -6.742188 C 11.265625 -6.742188 10.699219 -6.894531 10.699219 -8.648438 Z M 10.699219 -12.921875 "/></g></g></g><g fill="rgb(15.289307%, 16.468811%, 19.219971%)" fill-opacity="1"><g transform="translate(151.321549, 210.952522)"><g><path d="M 21.210938 -7.160156 L 12.960938 -7.160156 L 18.214844 -11.472656 C 20.402344 -13.261719 22.023438 -15.972656 22.023438 -19.0625 C 22.023438 -25.035156 18.007812 -29.140625 11.753906 -29.140625 C 8.082031 -29.140625 3.671875 -27.089844 1.75 -21.832031 C 1.527344 -21.210938 1.734375 -20.683594 2.296875 -20.457031 L 7.308594 -18.441406 C 8.023438 -18.160156 8.777344 -18.234375 9.023438 -19.101562 C 9.550781 -20.984375 10.71875 -21.511719 11.847656 -21.511719 C 13.222656 -21.511719 14.316406 -20.496094 14.316406 -19.082031 C 14.316406 -18.292969 13.695312 -17.386719 12.714844 -16.484375 L 1.882812 -6.386719 C 1.65625 -6.179688 1.5625 -5.746094 1.5625 -5.046875 L 1.5625 -1.207031 C 1.5625 -0.472656 2.148438 0 3.109375 0 L 21.34375 0 C 22.132812 0 22.625 -0.488281 22.625 -1.300781 L 22.625 -5.746094 C 22.625 -6.632812 22.117188 -7.160156 21.210938 -7.160156 Z M 21.210938 -7.160156 "/></g></g></g><g fill="rgb(15.289307%, 16.468811%, 19.219971%)" fill-opacity="1"><g transform="translate(179.051638, 210.952522)"><g><path d="M 16.03125 0.527344 C 24.320312 0.527344 30.835938 -5.992188 30.835938 -14.296875 C 30.835938 -22.625 24.320312 -29.140625 16.03125 -29.140625 C 7.742188 -29.140625 1.222656 -22.625 1.222656 -14.296875 C 1.222656 -5.992188 7.742188 0.527344 16.03125 0.527344 Z M 16.03125 -7.195312 C 12.074219 -7.195312 8.96875 -10.324219 8.96875 -14.296875 C 8.96875 -18.308594 12.074219 -21.417969 16.03125 -21.417969 C 19.988281 -21.417969 23.09375 -18.308594 23.09375 -14.296875 C 23.09375 -10.324219 19.988281 -7.195312 16.03125 -7.195312 Z M 16.03125 -10.230469 C 18.292969 -10.230469 20.0625 -12.019531 20.0625 -14.296875 C 20.0625 -16.613281 18.292969 -18.40625 16.03125 -18.40625 C 13.769531 -18.40625 12 -16.613281 12 -14.296875 C 12 -12.019531 13.769531 -10.230469 16.03125 -10.230469 Z M 16.03125 -10.230469 "/></g></g></g><g fill="rgb(15.289307%, 16.468811%, 19.219971%)" fill-opacity="1"><g transform="translate(214.391864, 210.952522)"><g><path d="M 21.210938 -7.160156 L 12.960938 -7.160156 L 18.214844 -11.472656 C 20.402344 -13.261719 22.023438 -15.972656 22.023438 -19.0625 C 22.023438 -25.035156 18.007812 -29.140625 11.753906 -29.140625 C 8.082031 -29.140625 3.671875 -27.089844 1.75 -21.832031 C 1.527344 -21.210938 1.734375 -20.683594 2.296875 -20.457031 L 7.308594 -18.441406 C 8.023438 -18.160156 8.777344 -18.234375 9.023438 -19.101562 C 9.550781 -20.984375 10.71875 -21.511719 11.847656 -21.511719 C 13.222656 -21.511719 14.316406 -20.496094 14.316406 -19.082031 C 14.316406 -18.292969 13.695312 -17.386719 12.714844 -16.484375 L 1.882812 -6.386719 C 1.65625 -6.179688 1.5625 -5.746094 1.5625 -5.046875 L 1.5625 -1.207031 C 1.5625 -0.472656 2.148438 0 3.109375 0 L 21.34375 0 C 22.132812 0 22.625 -0.488281 22.625 -1.300781 L 22.625 -5.746094 C 22.625 -6.632812 22.117188 -7.160156 21.210938 -7.160156 Z M 21.210938 -7.160156 "/></g></g></g><g fill="rgb(15.289307%, 16.468811%, 19.219971%)" fill-opacity="1"><g transform="translate(242.121954, 210.952522)"><g><path d="M 21.210938 -7.160156 L 12.960938 -7.160156 L 18.214844 -11.472656 C 20.402344 -13.261719 22.023438 -15.972656 22.023438 -19.0625 C 22.023438 -25.035156 18.007812 -29.140625 11.753906 -29.140625 C 8.082031 -29.140625 3.671875 -27.089844 1.75 -21.832031 C 1.527344 -21.210938 1.734375 -20.683594 2.296875 -20.457031 L 7.308594 -18.441406 C 8.023438 -18.160156 8.777344 -18.234375 9.023438 -19.101562 C 9.550781 -20.984375 10.71875 -21.511719 11.847656 -21.511719 C 13.222656 -21.511719 14.316406 -20.496094 14.316406 -19.082031 C 14.316406 -18.292969 13.695312 -17.386719 12.714844 -16.484375 L 1.882812 -6.386719 C 1.65625 -6.179688 1.5625 -5.746094 1.5625 -5.046875 L 1.5625 -1.207031 C 1.5625 -0.472656 2.148438 0 3.109375 0 L 21.34375 0 C 22.132812 0 22.625 -0.488281 22.625 -1.300781 L 22.625 -5.746094 C 22.625 -6.632812 22.117188 -7.160156 21.210938 -7.160156 Z M 21.210938 -7.160156 "/></g></g></g></svg>